<?xml version="1.0" encoding="utf-8"?>
<!-- Generator: Adobe Illustrator 23.0.1, SVG Export Plug-In . SVG Version: 6.00 Build 0)  -->
<!DOCTYPE svg PUBLIC "-//W3C//DTD SVG 1.1//EN" "http://www.w3.org/Graphics/SVG/1.1/DTD/svg11.dtd" [
	<!ENTITY ns_flows "http://ns.adobe.com/Flows/1.0/">
	<!ENTITY ns_extend "http://ns.adobe.com/Extensibility/1.0/">
	<!ENTITY ns_ai "http://ns.adobe.com/AdobeIllustrator/10.0/">
	<!ENTITY ns_graphs "http://ns.adobe.com/Graphs/1.0/">
	<!ENTITY ns_vars "http://ns.adobe.com/Variables/1.0/">
	<!ENTITY ns_imrep "http://ns.adobe.com/ImageReplacement/1.0/">
	<!ENTITY ns_sfw "http://ns.adobe.com/SaveForWeb/1.0/">
	<!ENTITY ns_custom "http://ns.adobe.com/GenericCustomNamespace/1.0/">
	<!ENTITY ns_adobe_xpath "http://ns.adobe.com/XPath/1.0/">
]>
<svg version="1.1" xmlns:x="&ns_extend;" xmlns:i="&ns_ai;" xmlns:graph="&ns_graphs;"
	 xmlns="http://www.w3.org/2000/svg" xmlns:xlink="http://www.w3.org/1999/xlink" xmlns:a="http://ns.adobe.com/AdobeSVGViewerExtensions/3.0/"
	 x="0px" y="0px" viewBox="0 0 750 750" enable-background="new 0 0 750 750" xml:space="preserve">
<metadata>
	<sfw  xmlns="&ns_sfw;">
		<slices></slices>
		<sliceSourceBounds  bottomLeftOrigin="true" height="2289" width="3865" x="-13" y="-729"></sliceSourceBounds>
	</sfw>
</metadata>
<g id="FILL-BACKGROUND">
	<rect fill="#FFFFFF" width="750" height="750"/>
</g>
<g id="N-DIMS">
</g>
<g id="N-TEXT">
</g>
<g id="AG-DIAGRAM">
</g>
<g id="AG-PEOPLE">
</g>
<g id="AG-ANIMALS">
	<g id="POLYLINE_670_">
		<path fill="none" stroke="#FB8604" stroke-width="3" stroke-linecap="round" stroke-linejoin="round" stroke-miterlimit="10" d="
			M287.033,443.986c-1.965,3.807-3.914,7.623-6.146,11.283c-2.217,3.636-4.947,6.85-7.385,10.328
			c-2.399,3.422-3.977,7.257-5.58,11.093c-1.662,3.983-3.336,7.934-5.428,11.717c-2.156,3.901-4.557,7.665-6.809,11.512
			c-2.141,3.661-3.877,7.513-5.455,11.444c-1.51,3.767-3.082,7.567-4.145,11.49c-0.953,3.521-1.311,7.117-1.107,10.758
			c0.457,8.232,2.859,16.603,5.736,24.295c1.541,4.115,3.174,8.935,6.385,12.086"/>
	</g>
	<g id="POLYLINE_669_">
		<path fill="none" stroke="#FB8604" stroke-width="3" stroke-linecap="round" stroke-linejoin="round" stroke-miterlimit="10" d="
			M596.935,315.77c1.799-2.367,3.529-4.776,5.201-7.234"/>
	</g>
	<g id="POLYLINE_668_">
		<path fill="none" stroke="#FB8604" stroke-width="3" stroke-linecap="round" stroke-linejoin="round" stroke-miterlimit="10" d="
			M197.768,399.347c-1.898,8.417-4.217,16.747-6.957,24.931c-2.799,8.352-5.682,16.69-9.051,24.833
			c-3.232,7.811-7.23,15.27-12.166,22.141c-5.084,7.074-10.859,13.605-17.059,19.719c-5.883,5.803-12.387,11.275-19.646,15.278
			c-3.686,2.032-7.557,3.358-11.566,4.584c-1.867,0.57-3.734,1.139-5.516,1.941c-1.881,0.847-3.648,1.946-5.566,2.713
			c-2.264,0.905-4.395,0.904-6.787,0.487c-3.988-0.694-8.043-1.583-11.885-2.869c-2.02-0.677-4.043-1.383-6.002-2.224
			c-0.5-0.215-2.09-0.705-2.338-1.354c-0.654-0.786,4.596-1.183,4.588-1.171c0.018-0.008,0.033-0.026,0.047-0.032
			c-0.146-0.292-1.547-0.357-1.754-0.397c-0.924-0.181-1.842-0.385-2.746-0.652c-1.354-0.402-2.672-0.954-3.881-1.689
			c-0.779-0.474-2.705-1.849-0.943-2.346c1.273-0.359,2.713,0.021,3.949-0.357c0.832-0.254-0.391-0.591-0.775-0.732
			c-1.977-0.73-3.959-1.436-5.848-2.381c-0.965-0.484-2.137-1.009-2.883-1.826c-1.363-1.491,3.002-1.456,3.484-1.515
			c0.496-0.059,1.059-0.152,0.574-0.636c-0.303-0.303-0.852-0.486-1.221-0.667c-0.926-0.455-1.877-0.86-2.801-1.322
			c-0.584-0.293-4.107-1.851-3.748-3.096c0.16-0.481,0.941-0.523,1.352-0.573c0.945-0.113,1.91-0.1,2.859-0.126
			c0.326-0.009,0.914,0.054,1.225-0.105c0.699-0.155-0.16-0.652-0.408-0.783c-1.375-0.72-2.9-1.179-4.391-1.598
			c-0.301-0.085-2.961-0.506-3.07-1.095c-0.176-0.467,1.766-0.778,1.926-0.813c2.131-0.461,4.309-0.732,6.461-1.067
			c1.982-0.31,3.967-0.672,5.965-0.861c3.621-0.344,7.416-0.205,10.867,1.033c6.766,2.427,9.258,10.189,15.346,13.646
			c6.127,3.479,13.584,1.717,19.551-1.229c7.449-3.679,13.553-9.541,18.758-15.924c5.281-6.475,9.672-13.772,13.295-21.293
			c3.805-7.896,6.973-16.081,9.365-24.516c2.367-8.342,3.895-16.88,5.006-25.471c1.039-8.039,1.662-16.128,2.305-24.205
			c0.738-9.273,1.078-18.706,2.598-27.898c1.328-8.034,4.076-15.537,8.244-22.541c4.32-7.26,9.221-14.469,15.193-20.482
			c5.93-5.969,12.846-10.627,20.314-14.455c7.555-3.869,15.412-7.225,23.389-10.118c7.779-2.821,15.766-6.165,24.076-6.929
			c4.057-0.373,8.16-0.023,12.195,0.414c4.805,0.52,9.594,1.193,14.387,1.801c6.762,0.856,13.496,0.938,20.301,0.803
			c9.652-0.191,19.305-0.383,28.957-0.574c11.867-0.235,23.736-0.471,35.604-0.706c6.25-0.124,12.494-0.32,18.742-0.526"/>
	</g>
	<g id="POLYLINE_667_">
		<path fill="none" stroke="#FB8604" stroke-width="3" stroke-linecap="round" stroke-linejoin="round" stroke-miterlimit="10" d="
			M271.371,428.576c4.738,6.651,10.121,12.585,17.463,16.396c7.131,3.702,15.189,5.771,23.086,7.049
			c8.162,1.321,16.67,0.778,24.41,4.018c3.92,1.642,7.676,3.643,11.658,5.136c3.959,1.483,8.041,2.637,12.178,3.501
			c8.074,1.688,16.498,2.514,24.695,1.238c4.279-0.666,8.473-1.802,12.758-2.419c3.49-0.503,6.799-0.268,10.178,0.763
			c2.814,0.858,5.543,2,8.422,2.638c2.803,0.62,5.662,0.811,8.523,0.91"/>
	</g>
	<g id="POLYLINE_666_">
		<path fill="none" stroke="#FB8604" stroke-width="3" stroke-linecap="round" stroke-linejoin="round" stroke-miterlimit="10" d="
			M262.014,571.517c3.389-0.571,6.418-2.153,9.932-2.093c3.578,0.061,7.117,1.088,10.223,2.862c4.846,2.77,8,7.388,7.351,13.093
			c-0.205,1.802-0.775,3.656-1.951,5.07c-1.375,1.655-3.338,2.504-5.375,3.056c-6.668,1.804-13.682,1.112-20.445,0.433"/>
	</g>
	<g id="POLYLINE_665_">
		<path fill="none" stroke="#FB8604" stroke-width="3" stroke-linecap="round" stroke-linejoin="round" stroke-miterlimit="10" d="
			M191.201,347.132c0.334,8.737,0.852,17.405,2.162,26.06c1.318,8.696,3.131,17.311,4.385,26.02
			c1.191,8.266,1.721,16.625,2.408,24.943c0.658,7.945,1.256,15.896,2.055,23.827c1.104,10.934,2.205,21.867,3.307,32.801
			c0.727,7.202,0.893,14.278-0.846,21.355c-0.98,3.989-2.238,8.011-4.016,11.724c-1.041,2.174-2.625,4.169-2.756,6.654
			c-0.193,3.65,1.119,7.478,2.17,10.923c1.27,4.162,2.789,8.247,4.318,12.318c3.119,8.298,6.492,16.453,10.211,24.498
			c1.537,3.327,3.248,6.927,3.609,10.617c0.254,2.595-0.635,5.252,0.197,7.786c1.572,4.788,6.129,7.542,10.918,8.072
			c4.17,0.462,8.436,0.237,12.621,0.176c4.537-0.067,9.072-0.114,13.611-0.111c4.48,0.003,9.492-0.66,11.91-4.943
			c2.633-4.665,0.441-11.291-2.441-15.293c-1.215-1.688-2.744-3.166-4.709-3.926c-2.603-1.008-5.559-0.705-8.258-0.349
			c-2.107,0.278-4.191,0.598-6.312,0.742c-1.902,0.13-3.838,0.053-5.721,0.382c-1.367,0.238-2.678,0.789-4.066,0.893
			c-1.744,0.13-3.506-0.11-5.244,0.098c-1.654,0.199-3.113,0.861-4.568,1.643"/>
	</g>
	<g id="POLYLINE_664_">
		<path fill="none" stroke="#FB8604" stroke-width="3" stroke-linecap="round" stroke-linejoin="round" stroke-miterlimit="10" d="
			M280.709,414.871c-2.332,3.593-4.588,7.26-7.129,10.712c-2.699,3.666-5.441,7.3-8.117,10.982
			c-4.988,6.864-9.24,14.212-12.502,22.049c-3.484,8.376-6.064,17.07-8.779,25.715c-1.225,3.904-2.51,7.796-3.58,11.745
			c-1.117,4.116-1.734,8.373-3.049,12.434c-0.816,2.522-2.625,4.602-3.201,7.193c-0.777,3.491-0.408,7.312-0.104,10.839
			c0.725,8.429,2.014,17.124,4.535,25.218c0.953,3.061,2.328,5.893,3.779,8.738c1.772,3.468,3.481,6.975,5.438,10.342"/>
	</g>
	<g id="POLYLINE_663_">
		<path fill="none" stroke="#FB8604" stroke-width="3" stroke-linecap="round" stroke-linejoin="round" stroke-miterlimit="10" d="
			M546.062,225.395c-2.963,3.138-5.551,6.624-8.146,10.066c-2.258,2.994-4.438,6.277-5.287,9.984
			c-1.846,8.035,2.088,16.376,4.91,23.689c1.348,3.492,2.385,7.111,2.375,10.881c-0.01,3.809-0.688,7.678,0.242,11.432
			c0.881,3.546,2.894,6.764,5.18,9.569c1.268,1.556,2.674,3.017,3.75,4.72c1.092,1.732,1.748,3.68,2.598,5.53
			c1.002,2.177,2.439,3.579,4.277,5.089"/>
	</g>
	<g id="POLYLINE_662_">
		<path fill="none" stroke="#FB8604" stroke-width="3" stroke-linecap="round" stroke-linejoin="round" stroke-miterlimit="10" d="
			M565.09,306.562c-4.744,1.58-10.199,6.133-9.019,11.758c0.519,2.478,2.51,4.305,4.553,5.619c3.297,2.123,7.152,3.308,10.963,4.096
			c3.758,0.777,7.639,1.02,11.467,0.877c3.119-0.116,6.764-0.24,9.637-1.593c3.992-1.88,4.711-7.929,4.221-11.768
			c-0.322-2.524-1.285-5.03-3.082-6.874"/>
	</g>
	<g id="POLYLINE_661_">
		<path fill="none" stroke="#FB8604" stroke-width="3" stroke-linecap="round" stroke-linejoin="round" stroke-miterlimit="10" d="
			M491.008,567.988c-0.939-1.352-1.742-2.853-1.785-4.529c-0.031-1.27,0.373-2.529,0.559-3.774c0.219-1.455,0.17-2.916,0.016-4.375
			c-0.395-3.699-0.811-7.196,0.221-10.828c1.125-3.965,2.822-7.742,3.918-11.722c2.348-8.523,4.022-17.216,6.348-25.745
			c1.08-3.963,2.35-7.85,4.096-11.575c1.744-3.727,4.006-7.176,5.158-11.156c0.385-1.329,0.67-2.686,0.982-4.033"/>
	</g>
	<g id="POLYLINE_660_">
		<path fill="none" stroke="#FB8604" stroke-width="3" stroke-linecap="round" stroke-linejoin="round" stroke-miterlimit="10" d="
			M487.33,593.051c4.096,1.496,8.256,2.246,12.619,2.14c4.15-0.102,8.42-0.113,12.525-0.792c2-0.331,4.234-0.892,5.6-2.516
			c1.158-1.378,1.516-3.267,1.559-5.019c0.16-6.361-2.715-12.326-8.172-15.676c-3.152-1.938-6.814-3.158-10.449-3.8
			c-3.357-0.593-6.895-0.678-10.096,0.637c-2.111,0.867-3.93,2.261-5.684,3.694"/>
	</g>
	<g id="POLYLINE_659_">
		<path fill="none" stroke="#FB8604" stroke-width="3" stroke-linecap="round" stroke-linejoin="round" stroke-miterlimit="10" d="
			M468.725,567.745c-0.594-1.708-1.191-3.439-2.104-5.009c-0.756-1.303-1.758-2.457-2.428-3.81
			c-0.904-1.822-0.789-3.847-0.574-5.819c0.463-4.28,1.324-8.523,1.973-12.777c0.645-4.222,1.152-8.478,1.43-12.741
			c0.568-8.672-0.434-17.351,0.191-26.014c0.629-8.702,2.699-17.27,4.557-25.77c1.336-6.112,2.832-12.183,4.496-18.214"/>
	</g>
	<g id="POLYLINE_658_">
		<path fill="none" stroke="#FB8604" stroke-width="3" stroke-linecap="round" stroke-linejoin="round" stroke-miterlimit="10" d="
			M422.221,452.34c1.842,7.99,3.117,16.232,2.689,24.456c-0.451,8.686-0.746,17.305-0.258,25.998
			c0.246,4.393,0.529,8.781,1.064,13.15c0.484,3.939,0.678,7.661,0.322,11.623c-0.383,4.262-1.066,8.539-1.084,12.825
			c-0.014,2.951,0.703,5.907-0.127,8.798c-0.531,1.849-1.533,3.9-0.523,5.764c0.619,1.144,1.594,2.04,2.311,3.116
			c0.527,0.791,0.9,1.636,1.176,2.546c0.445,1.468,0.6,3.046,0.707,4.569c0.162,2.268,0.305,4.536,0.414,6.806
			c0.178,3.701,0.521,7.664-0.324,11.306c-0.768,3.301-1.994,8.646,2.188,10.126c3.502,1.239,7.602,1.215,11.27,1.418
			c4.44,0.247,8.893,0.198,13.338,0.2c4.34,0.002,8.682-0.058,13.023-0.088c4.176-0.028,8.359,0.357,12.533,0.235
			c1.797-0.052,4.109-0.116,5.596-1.334c1.432-1.17,1.949-3.002,2.01-4.794c0.221-6.633-4.521-12.559-9.475-16.444
			c-3.242-2.544-6.965-4.531-11.115-4.97c-3.131-0.331-6.473,0.087-9.35,1.401c-2.103,0.961-3.9,2.771-6.24,3.146
			c-2.838,0.454-5.729-0.488-8.586-0.047c-1.654,0.256-3.178,0.96-4.643,1.741c-1.943,1.035-3.844,2.256-5.467,3.751"/>
	</g>
	<g id="POLYLINE_657_">
		<path fill="none" stroke="#FB8604" stroke-width="3" stroke-linecap="round" stroke-linejoin="round" stroke-miterlimit="10" d="
			M454.572,262.997c-3.449,1.107-6.762,1.863-10.406,1.698c-1.025-0.047-2.047-0.155-3.07-0.203
			c-0.236-0.012-0.898-0.128-1.125,0.025c-0.607,0.182,0.613,0.81,0.787,0.906c1.686,0.922,3.529,1.611,5.353,2.206
			c0.91,0.297,1.84,0.513,2.766,0.76c0.221,0.06,0.814,0.126,0.976,0.337c0.445,0.332-0.533,0.746-0.758,0.857
			c-1.908,0.938-4.008,1.553-6,2.279c-1.348,0.492-2.887,0.944-4.076,1.775c-0.402,0.281-0.691,0.542-0.18,0.841
			c0.852,0.498,2.469,0.349,3.396,0.37c1.221,0.029,2.44,0.059,3.66,0.088c0.049,0.002,1.016-0.023,1.053,0.113
			c0.1,0.102-0.82,0.324-0.852,0.332c-1.158,0.28-2.332,0.512-3.498,0.764c-1.799,0.39-3.592,0.824-5.33,1.432
			c-3.775,1.316-6.875,3.764-10.365,5.628c-3.703,1.978-7.57,3.832-10.559,6.854c-2.301,2.326-4.449,5.558-5.264,8.76
			c-0.096,0.373-0.348,1.153,0.217,1.17c0.203,0.006,0.514-0.279,0.652-0.379c0.762-0.549,1.453-1.21,2.164-1.82
			c2.896-2.494,5.99-4.799,9.547-6.267c3.459-1.428,7.193-2.24,10.912-2.581c1.619-0.148,3.293-0.238,4.91-0.032
			c0.396,0.05,1.459,0.118,1.662,0.577c0.867,1.97-13.811,5.104-15.188,5.736c-2.465,1.13-4.424,3.572-5.953,5.721
			c-0.336,0.475-2.434,3.164-0.9,3.374c1.025,0.14,2.318-0.538,3.25-0.867c2.041-0.722,4.072-1.465,6.15-2.076
			c3.803-1.118,7.783-1.69,11.732-1.933c0.379-0.023,3.109-0.385,3.352,0.105c0.197,0.138-0.369,0.328-0.445,0.361
			c-0.889,0.376-1.869,0.604-2.789,0.888c-3.521,1.089-6.893,2.464-9.98,4.499c-1.248,0.822-2.488,1.741-3.494,2.853
			c-0.391,0.432-0.92,1.012-0.992,1.619c-0.184,1.544,2.639,1.001,3.406,0.891c2.191-0.316,4.35-0.865,6.506-1.354
			c1.422-0.32,3.121-0.961,4.596-0.854c0.467,0.035,0.623,0.147,0.377,0.582c-0.205,0.361-0.65,0.664-0.961,0.924
			c-0.836,0.696-1.715,1.346-2.576,2.009c-3.227,2.483-6.617,4.585-10.017,6.802c-3.166,2.065-5.43,5.326-7.053,8.692
			c-0.351,0.728-1.498,3.142,0.266,2.368c1.566-0.687,2.945-1.815,4.438-2.649c1.092-0.61,2.254-1.116,3.467-1.427
			c0.955-0.244,3.238-0.748,3.736,0.555c0.273,0.714-0.209,1.61-0.541,2.232c-0.85,1.59-2.027,3.004-3.162,4.393
			c-1.479,1.811-3.033,3.559-4.557,5.328c-1.018,1.184-2.129,2.4-2.871,3.785c-0.285,0.533-0.629,1.299,0.191,1.445
			c1.164,0.125,2.543-0.461,3.633-0.727c1.898-0.463,4.938-1.207,6.824-0.133c1.148,0.654,0.299,1.775-0.316,2.504
			c-2.334,2.768-5.43,4.831-7.33,7.979c-0.484,0.805-1.203,2.325,0.365,2.071c3.037-0.492,5.334-2.966,8.066-4.132
			c1.529-0.654,1.1,1.199,0.887,2.131c-0.945,4.128-2.68,8.048-3.771,12.139c-0.219,0.819-0.859,2.373-0.547,3.264
			c0.053,0.73,0.797,0.012,1.006-0.198c1.299-1.308,2.305-2.929,3.426-4.382c0.201-0.261,1.055-1.619,1.24-0.922
			c-0.523,3.15-1.561,6.014-1.521,9.256c0.025,1.953,0.285,3.899,0.264,5.853c-0.023,2.119-0.41,4.208-0.555,6.318
			c-0.258,3.767,0.764,7.489,0.436,11.251c-0.264,3.024-1.783,5.344-3.35,7.865c-0.203,0.329-0.852,1.189-0.393,1.531
			c0.531,0.177,1.199-0.095,1.684-0.307c2.166-0.948,3.897-2.519,5.285-4.414c0.58-0.792,1.109-1.62,1.65-2.44
			c0.107-0.164,0.354-0.647,0.559-0.719c0.459-0.458,0.312,1.247,0.305,1.33c-0.381,4.158-1.447,8.316-2.461,12.357
			c-0.506,2.023-1.147,4.007-1.857,5.965c-0.4,1.099-1.217,2.503-1.203,3.72c0.018,1.443,1.983-0.035,2.475-0.399
			c2.1-1.561,3.588-3.759,4.674-6.106c0.355-0.768,0.572-1.93,1.107-2.57c0.17-0.204,0.127-0.328,0.27-0.064
			c0.096,1.447-0.227,2.952-0.459,4.372c-0.674,4.087-2.098,7.755-3.508,11.619c-0.152,0.421-0.434,1.06,0.199,0.879
			c1.311-0.843,2.412-1.984,3.641-2.94c0.805-0.626,2.451-1.906,2.371-0.05c-0.078,1.768-0.723,3.589-1.135,5.291
			c-0.41,1.688-0.76,3.426-0.865,5.163c-0.045,0.739-0.166,3,1.156,2.188c1.252-0.768,2.227-2.303,3.154-3.388
			c0.654-0.765,1.467-1.936,2.438-2.347c1.332-0.565,1.287,1.695,1.262,2.44c-0.119,3.708-1.725,6.816-2.928,10.231
			c-0.135,0.386-0.416,0.965,0.148,0.957c0.978-0.244,1.943-1.264,2.656-1.892c1.43-1.26,2.832-2.608,3.941-4.167
			c1.15-1.614,2.068-3.37,3.109-5.054c1.059-1.713,2.168-3.387,3.441-4.95c0.74-0.909,1.572-2.079,2.611-2.684
			c0.416-0.242,0.641-0.244,0.697,0.278c0.139,1.291-0.664,2.912-1.023,4.12c-1.23,4.124-2.398,8.281-3.043,12.545
			c-0.219,1.448-0.496,3-0.334,4.471c0.041,0.368,0.09,1.035,0.525,1.171c0.539,0,0.932-0.357,1.303-0.729
			c1.148-1.147,2.041-2.565,2.9-3.933c1.105-1.76,2.088-3.608,3.277-5.313c0.213-0.306,0.76-1.264,1.156-0.828
			c0.365,0.877,0.041,2.185-0.037,3.082c-0.166,1.944-0.391,3.901-0.285,5.855c0.19,3.549,1.359,6.92,1.397,10.503
			c0.004,0.377-0.348,7.023,0.781,6.679c0.668-0.364,1.06-1.518,1.334-2.162c0.76-1.798,1.285-3.71,1.586-5.638
			c0.31-1.998,0.322-4.007,0.418-6.021c0.018-0.371-0.082-1.67,0.465-1.109c0.232,0.236,0.355,0.759,0.463,1.055
			c0.312,0.862,0.56,1.748,0.781,2.638c0.43,1.737,0.732,3.506,0.801,5.296c0.154,4.014-0.588,8.015-0.572,12.033
			c0.004,0.526-0.215,5.208,1.051,4.96c0.484-0.161,0.83-0.888,1.047-1.298c0.869-1.645,1.482-3.443,2.025-5.219
			c0.652-2.14,1.262-4.291,1.908-6.433c0.1-0.33,0.674-3.067,1.25-3.116c0.434-0.145,0.471,1.981,0.479,2.13
			c0.119,2.303,0.105,4.615,0.141,6.92c0.061,3.976,0.77,7.888,0.896,11.855c0.07,2.237,0.01,4.481-0.002,6.72
			c-0.006,0.822,0,1.648,0.055,2.469c0.02,0.27-0.016,0.787,0.146,1.022c0.432,0.625,0.885-0.897,1.02-1.231
			c0.746-1.836,1.326-3.751,2.221-5.524c0.75-1.486,1.832-2.771,2.576-4.257c0.539-1.081,0.867-2.254,1.121-3.432
			c0.395-1.826,0.615-3.721,1.16-5.51c0.137-0.446,0.334-1.196,0.85-0.728c0.565,0.847,0.76,1.98,0.945,2.962
			c0.355,1.877,0.547,3.79,0.568,5.701c0.023,1.931-0.191,3.837-0.543,5.733c-0.16,0.856-0.824,2.584-0.479,3.513
			c0.289,1.449,3.668-2.009,3.824-2.172c2.426-2.552,3.506-5.449,4.545-8.767c0.391-1.246,0.766-2.879,1.604-3.928
			c0.338-0.423,0.539-0.397,0.734,0.105c0.438,1.132,0.316,2.591,0.361,3.78c0.072,1.973,0.012,4.028,0.369,5.98
			c0.068,0.369,0.184,1.171,0.656,1.256c0.504,0,0.92-0.562,1.215-0.901c1.189-1.377,2.314-2.774,3.537-4.124
			c0.59-0.648,1.094-1.366,1.467-2.16c0.57-1.219,0.873-2.554,1.16-3.861c0.223-1.011,0.4-2.05,0.703-3.041
			c0.055-0.178,0.15-0.695,0.34-0.793c0.379-0.437,0.797,1.199,0.838,1.346c0.527,1.929,0.801,3.934,1.098,5.907
			c0.307,2.025,0.576,4.063,0.697,6.108c0.121,2.02-0.111,3.994-0.367,5.992c-0.041,0.315-0.352,1.636,0.211,1.484
			c0.889-0.819,1.424-2.103,2.008-3.136c1.473-2.613,3.029-5.142,3.219-8.199c0.113-1.807-0.156-3.631-0.342-5.423
			c-0.111-1.07-0.467-2.518-0.129-3.586c0.471-1.484,2.143,0.752,2.486,1.26c1.58,2.338,2.131,5.04,2.158,7.825
			c0.01,0.898-0.148,1.855-0.055,2.744c0.027,0.264-0.066,0.477,0.176,0.302c0.369-0.27,0.611-1.535,0.748-1.898
			c0.359-0.962,0.699-1.935,1.121-2.871c0.146-0.323,0.59-1.605,1.119-1.501c0.445,0.205,0.492,1.009,0.545,1.423
			c0.217,1.712,0.043,3.474-0.18,5.176c-0.225,1.721-0.775,3.545-0.705,5.287c0.027,0.645,0.26,0.737,0.731,0.266
			c1.037-1.038,1.728-2.552,2.379-3.842c1.49-2.955,2.701-6.139,2.803-9.482c0.061-2.003-0.182-3.992-0.234-5.992
			c-0.037-1.427-0.135-3.042,0.229-4.439c0.158-0.608,0.381-0.59,0.588,0.009c0.473,1.36,0.705,2.833,1.342,4.134
			c0.922,1.88,1.912-0.139,2.318-1.255c1.289-3.541,1.16-7.35,0.947-11.048c-0.02-0.336-0.084-0.714-0.002-1.042
			c0.664-0.133,2.402,9.074,2.5,10.065c0.41,4.166,0.037,8.393-0.373,12.542c-0.043,0.42-0.496,2.393-0.035,2.757
			c0.264,0.393,0.988-0.857,1.072-0.997c2.043-3.332,3.588-7.191,4.484-10.991c0.9-3.814,0.922-7.772,0.731-11.665
			c-0.055-1.145-0.125-2.289-0.158-3.434c-0.016-0.501-0.129-1.198,0.031-1.691c0.23-0.715,0.521,0.005,0.723,0.43
			c1.578,3.334,2.85,7.281,2.85,10.99c0,2.015-0.211,4.02-0.406,6.022c-0.107,1.103-0.232,2.207-0.316,3.311
			c-0.024,0.324-0.221,1.189-0.045,1.519c0.08,0.317,0.137,0.138,0.297-0.009c0.391-0.358,0.611-1.335,0.793-1.796
			c0.822-2.079,1.67-4.141,2.545-6.196c1.426-3.345,2.867-6.697,3.186-10.358c0.352-4.03-0.104-8.09,0.127-12.127
			c0.018-0.292-0.021-2.008,0.523-1.736c0.76,1.036,0.971,2.648,1.308,3.857c0.998,3.574,1.861,7.055,1.949,10.782
			c0.039,1.64-0.248,3.517,0.111,5.137c0.158,0.709,0.432,0.484,0.744-0.05c0.828-1.413,1.303-3.092,1.818-4.635
			c0.664-1.99,1.293-4.004,1.795-6.041c0.477-1.927,0.815-3.876,0.99-5.854c0.17-1.913,0.07-3.905,0.406-5.798
			c0.162-0.908,0.387-0.281,0.547,0.294c0.338,1.207,0.453,2.848,1.172,3.922c0.918,1.368,1.481-2.588,1.527-2.979
			c0.221-1.853,0.199-3.747,0.623-5.572c0.32-1.371,0.945-2.6,1.592-3.843c0.613-1.179,1.213-2.379,1.479-3.69
			c0.277-1.364,0.199-2.774,0.08-4.15c-0.221-2.551-0.803-5.057,0.059-7.538c0.643-1.852,1.119-3.724,1.67-5.604
			c0.584-1.996,1.227-3.97,1.654-6.007c0.676-3.204,0.596-6.48,0.207-9.715"/>
	</g>
	<g id="POLYLINE_656_">
		<path fill="none" stroke="#FB8604" stroke-width="3" stroke-linecap="round" stroke-linejoin="round" stroke-miterlimit="10" d="
			M525.854,211.161c-1.113,1.202-2.174,2.284-3.848,2.564c-1.385,0.231-2.789,0.006-4.18,0.081c-0.383,0.02-0.996,0.002-0.945,0.51
			c0.172,0.515,0.791,0.912,1.203,1.211c1.438,1.037,3.086,1.756,4.723,2.413c1.465,0.589,3.217,0.989,4.551,1.868
			c0.473,0.311,0.603,0.556,0.057,0.828c-0.465,0.23-1.09,0.286-1.594,0.366c-1.156,0.185-2.32,0.323-3.479,0.478
			c-1.062,0.142-2.715,0.143-3.652,0.768c-0.578,0.386-0.152,0.733,0.293,1.021c1.482,0.952,3.299,1.46,4.906,2.142
			c1.924,0.816,4.127,1.6,5.029,3.645c0.557,1.265,1.082,2.301,1.818,3.486c0.332,0.538,0.707,1.166,0.742,1.816
			c0.059,1.114-0.975,1.903-1.801,2.467c-1.623,1.105-3.432,1.996-5.182,2.877c-1.834,0.923-3.697,1.812-5.633,2.505
			c-1.129,0.403-2.307,0.77-3.512,0.849c-1.398,0.092-2.789-0.178-4.168-0.367c-1.92-0.264-3.895-0.322-5.83-0.258
			c-0.723,0.023-2.303-0.107-2.938,0.4c-0.51,0.295,0.018,0.656,0.34,0.843c1.256,0.724,2.717,1.183,4.104,1.573
			c0.869,0.244,3.926,0.537,2.853,2.089c-0.707,1.022-1.895,1.798-2.877,2.518c-1.77,1.301-3.613,2.504-5.434,3.732
			c-1.535,1.037-3.219,2.018-4.6,3.26c-0.52,0.466-0.551,0.732,0.209,0.544c1.762-0.434,3.422-1.218,5.188-1.642
			c0.385-0.092,1.236-0.392,1.154,0.225c-0.035,0.258-0.402,0.579-0.557,0.753c-0.51,0.574-1.082,1.093-1.641,1.618
			c-1.701,1.601-3.424,3.182-5.065,4.845c-2.697,2.735-5.141,5.878-6.861,9.325c-0.108,0.215-1.023,1.838-0.652,2.054
			c0.205,0.044,0.502-0.269,0.631-0.372c0.73-0.581,1.402-1.233,2.127-1.822c3.219-2.617,6.818-4.697,10.494-6.605
			c1.383-0.718,2.848-1.505,4.357-1.92c0.457-0.127,0.961-0.251,0.648,0.334c-0.201,0.379-0.674,0.724-0.979,1
			c-0.672,0.606-1.363,1.189-2.062,1.764c-1.789,1.471-3.602,2.916-5.367,4.413c-2.625,2.226-5.51,4.497-7.268,7.516
			c-0.881,1.513-1.357,3.2-2,4.819c-0.408,1.029-0.857,2.044-1.289,3.064c-0.131,0.308-0.533,0.969-0.471,1.324
			c0.115,0.664,1.109-0.602,1.334-0.836c1.461-1.525,2.859-3.105,4.353-4.6c0.676-0.676,1.371-1.35,2.115-1.952
			c0.248-0.201,0.576-0.528,0.891-0.625c0.596-0.183,0.453,0.269,0.301,0.707c-0.508,1.472-1.408,2.843-2.172,4.19
			c-1.191,2.107-2.424,4.196-3.576,6.325c-1.783,3.292-3.006,6.611-3.649,10.304c-0.267,1.536-0.574,3.182-0.476,4.748
			c0.029,0.49,0.078,0.971,0.572,0.543c0.342-0.295,0.576-0.861,0.787-1.243c0.57-1.03,1.115-2.075,1.67-3.114
			c0.914-1.707,1.898-3.408,3.012-4.995c0.193-0.277,0.824-1.374,0.934-0.712c0.076,0.473-0.375,1.311-0.523,1.73
			c-0.361,1.016-0.736,2.025-1.107,3.036c-1.391,3.785-2.982,7.642-3.561,11.656c-0.113,0.785-0.361,2.023-0.062,2.824
			c0.219,0.583,0.465,0.32,0.727-0.118c0.951-1.594,1.455-3.584,2.102-5.308c0.648-1.729,1.373-3.454,2.258-5.078
			c0.111-0.206,0.799-1.705,1.236-1.638c0.447-0.057,0.172,1.791,0.156,1.927c-0.414,3.466-1.232,6.893-1.916,10.311
			c-0.299,1.485-0.592,2.972-0.879,4.46c-0.154,0.794-0.568,1.898-0.381,2.696c0.248-0.05,0.477-1.113,0.547-1.313
			c0.385-1.088,0.762-2.178,1.168-3.257c0.639-1.698,1.42-3.261,2.412-4.779c1.021-1.567,1.742-3.21,2.586-4.874
			c0.426-0.84,0.531-0.527,0.463,0.257c-0.135,1.575-0.465,3.14-0.75,4.692c-0.545,2.967-1.092,5.934-1.637,8.9
			c-0.666,3.613-1.576,7.336-1.668,11.021c-0.008,0.318-0.125,1.457,0.344,1.576c0.424,0.07,0.863-0.69,1.047-0.966
			c2.061-3.091,2.893-6.913,3.881-10.435c0.065-0.231,0.461-2.256,0.98-2.25c0.512,0,0.66,1.853,0.695,2.119
			c0.541,3.959,0.209,7.871-0.273,11.812c-0.508,4.135-0.754,8.245-0.504,12.41c0.105,1.789,0.139,3.691,0.6,5.434
			c0.129,0.488,0.301,0.967,0.6,0.324c0.645-1.383,0.605-3.315,0.799-4.815c0.273-2.142,0.443-4.343,0.91-6.454
			c0.107-0.492,0.311-1.346,0.637-0.522c0.572,1.44,0.506,3.352,0.604,4.873c0.293,4.568,0.305,9.142,0.344,13.718
			c0.014,1.601-0.131,3.356,0.207,4.931c0.141,0.65,0.373,0.66,0.68,0.057c0.742-1.461,1.086-3.211,1.506-4.783
			c0.561-2.103,1.07-4.221,1.656-6.316c0.117-0.416,0.228-1.344,0.557-1.666c0.201-0.199,0.127-0.23,0.281,0.012
			c0.359,1.615,0.115,3.52,0.127,5.15c0.031,4.137,0.238,8.254,0.69,12.367c0.107,0.959,0.23,1.92,0.398,2.869
			c0.061,0.34,0.086,1.115,0.33,1.396c0.273,0.685,0.578-1.379,0.596-1.502c0.322-2.096,0.578-4.224,1.057-6.291
			c0.293-1.267,0.375,0.102,0.387,0.66c0.102,4.408-0.02,8.808,0.199,13.214c0.217,4.382,0.631,8.757,1.008,13.128
			c0.025,0.3,0.053,2.987,0.533,3.13c0.238,0.179,0.965-3.23,0.982-3.31c0.416-1.893,0.902-3.775,1.56-5.601
			c0.256-0.713,0.602-2.049,1.262-2.56c0.305-0.524,0.605,0.137,0.683,0.41c0.424,1.466,0.32,3.175,0.387,4.686
			c0.174,4.066,0.072,8.354,1.449,12.24c0.721,2.03,1.762,3.947,2.607,5.927c0.127,0.297,0.619,1.847,1.002,1.33
			c0.291-1.167,0.035-2.553-0.049-3.73c-0.152-2.139-0.381-4.271-0.512-6.411c-0.025-0.438-0.209-1.293-0.02-1.721
			c0.105-0.235,0.025-0.297,0.27-0.151c0.762,1.305,1.125,2.875,1.561,4.31c1.168,3.843,1.678,7.996,3.271,11.688
			c0.264,0.607,2.859,6.318,3.693,5.571c0.137-0.164,0.113-0.509,0.125-0.705c0.055-0.85-0.039-1.721-0.076-2.568
			c-0.059-1.381-0.059-2.777,0.273-4.127c0.064-0.262,0.299-1.3,0.746-1.272c0.484,0,0.752,1.502,0.816,1.751
			c0.1,0.384,0.377,2.703,0.996,2.916c0.432,0.259,0.779-0.937,0.857-1.168c0.652-1.901,0.984-3.919,1.379-5.884
			c0.074-0.37,0.162-1.561,0.668-1.17c0.35,0.7,1.396,5.703,2.266,5.431c0.707-0.652,0.838-2.1,1.131-2.94
			c0.69-1.974,1.447-3.938,1.957-5.969c0.209-0.833,0.352-1.671,0.432-2.525c0.045-0.482-0.021-1.088,0.17-1.527
			c0.217,0.1,0.297,1.01,0.328,1.163c0.248,1.191,0.496,2.382,0.744,3.572c0.324,1.562,0.66,3.18,1.295,4.651
			c0.461,1.065,1.109,1.992,1.371,3.136c0.18,0.784,0.234,1.591,0.389,2.379c0.031,0.16,0.064,0.641,0.227,0.761
			c0.23,0.496,0.758-0.67,0.816-0.802c0.738-1.665,1.139-3.528,1.457-5.313c0.185-1.032,0.334-2.07,0.506-3.105
			c0.021-0.12,0.078-1.018,0.252-1.079c0.123-0.204,0.271,0.509,0.279,0.538c0.242,1.049,0.348,2.14,0.51,3.202
			c0.269,1.749,0.67,3.435,1.227,5.115c0.35,1.054,0.662,2.131,1.07,3.164c0.104,0.261,0.215,0.683,0.436,0.878
			c0.356,0.534,0.658-0.206,0.775-0.51c0.633-1.641,0.824-3.5,1.199-5.206c0.428-1.956,0.877-3.91,1.51-5.812
			c0.084-0.247,0.23-0.959,0.469-1.142c0.201-0.301,0.199-0.009,0.256,0.173c0.166,0.525-0.02,1.296-0.049,1.838
			c-0.064,1.146-0.146,2.294-0.172,3.442c-0.027,1.21-0.053,2.456,0.236,3.641c0.227,0.933,0.725,1.728,1.139,2.586
			c0.592,1.22,0.809,2.545,1.182,3.839c0.115,0.402,0.277,1.294,0.816,0.942c0.51-0.655,0.721-1.565,0.918-2.35
			c0.492-1.95,0.678-3.947,0.754-5.951c0.008-0.237-0.139-1.652,0.113-1.861c0.07-0.278,0.322,0.515,0.336,0.562
			c0.512,1.646,0.885,3.366,1.734,4.883c0.723,1.287,1.568,2.417,2.17,3.773c0.178,0.401,0.445,1.322,0.854,0.733
			c0.477-1.428,0.512-3.049,0.689-4.528c0.422-3.515,1.666-6.913,1.68-10.468c0.002-0.6-0.154-9.407,0.267-9.347
			c0.197,0.196,0.254,0.583,0.324,0.834c0.279,0.999,0.478,2.024,0.707,3.037c0.189,0.85,0.375,1.704,0.623,2.539
			c0.09,0.299,0.178,0.815,0.412,1.048c0.432,0.429,0.598-0.094,0.744-0.538c0.578-1.73,0.801-3.576,1.209-5.35
			c0.434-1.879,1.209-3.611,1.795-5.44c0.641-1.998,1.373-3.915,2.139-5.867c0.666-1.697,1.148-3.456,1.4-5.262
			c0.119-0.856,0.082-1.96,0.406-2.774c0.08-0.198,0.037-0.388,0.24-0.263c0.59,1.182,0.557,2.885,0.75,4.176
			c0.164,1.097,0.311,2.197,0.506,3.29c0.066,0.371,0.086,1.194,0.348,1.511c0.426,0.512,0.496-0.987,0.535-1.274
			c0.283-2.131,0.424-4.28,0.686-6.414c0.109-0.895,0.225-1.797,0.42-2.678c0.051-0.231,0.092-0.744,0.27-0.916
			c0.344-0.617,0.602,1.112,0.625,1.246c0.367,2.197,0.514,4.439,0.729,6.655c0.074,0.772,0.143,1.553,0.293,2.315
			c0.027,0.14,0.08,0.668,0.242,0.767c0.311,0.414,0.725-0.99,0.77-1.141c0.527-1.794,0.799-3.671,1.016-5.524
			c0.199-1.714,0.307-3.436,0.395-5.159c0.057-1.152,0.115-2.306,0.174-3.459c0.014-0.268,0.01-0.576,0.104-0.822
			c0.219,0.262,0.143,0.931,0.172,1.254c0.125,1.408,0.252,2.816,0.377,4.225c0.156,1.749,0.266,3.56,0.678,5.271
			c0.111,0.462,0.26,1.217,0.699,0.601c0.234-0.329,0.322-0.883,0.422-1.255c0.283-1.044,0.51-2.103,0.758-3.154
			c0.324-1.37,0.885-2.659,1.012-4.07c0.185-2.027,0.002-4.084,0.014-6.115c0.002-0.408-0.15-1.347,0.09-1.738
			c0.055-0.363,0.197-0.119,0.322,0.024c0.338,0.387,0.445,1.188,0.59,1.656c0.33,1.086,0.643,2.18,1,3.258
			c0.1,0.298,0.492,1.988,0.957,1.574c0.467-1.171,0.35-2.588,0.59-3.822c0.33-1.701,0.881-3.328,1.119-5.05
			c0.037-0.261,0.082-2.005,0.611-1.761c0.736,1.104,1.008,2.612,1.402,3.853c0.07,0.217,0.217,1.135,0.465,1.264
			c0.125,0.281,0.139-0.465,0.135-0.513c-0.092-2.151-0.381-4.3-0.59-6.441c-0.031-0.313-0.488-3.001-0.053-3.173
			c0.229-0.228,0.973,2.018,0.977,2.029c0.287,0.933,0.533,1.884,0.703,2.845c0.108,0.609-0.019,1.796,0.285,2.292
			c0.146,0.238,0.049,0.207,0.254,0.003c0.385-0.384,0.537-1.444,0.682-1.932c0.436-1.474,0.838-2.991,0.922-4.532
			c0.096-1.764-0.139-3.537-0.133-5.303c0-0.27-0.107-1.056,0.082-1.284c0.098-0.297,0.164-0.051,0.273,0.082
			c0.744,0.915,0.5,2.528,1.248,3.479c0.398,0.509,0.578,0.074,0.715-0.408c0.463-1.62,0.576-3.324,0.959-4.965
			c0.397-1.693,1.125-3.265,1.633-4.922c1.152-3.764,0.906-7.67,1.566-11.507c0.062-0.358,0.184-1.347,0.688-1.397
			c0.367-0.078,0.766,0.627,0.904,0.854c0.664,1.078,1.049,2.351,1.328,3.575c0.238,1.044,0.389,2.105,0.564,3.161
			c0.055,0.328,0.082,0.929,0.287,1.223c0.363,0.518,0.613-0.051,0.817-0.457c0.807-1.603,1.182-3.412,1.779-5.096
			c0.156-0.438,0.422-1.501,0.914-1.742c0.428-0.365,0.873,0.486,1.127,0.646c1.076,0.677,1.057-2.16,1.033-2.698
			c-0.074-1.863-1.137-3.582-1.047-5.447c0.098-1.975,1.201-3.736,1.156-5.751c-0.01-0.378-0.467-2.664-0.066-2.726
			c0.705,0.353,0.91,1.414,1.613,1.792c1.18,0.636,0.742-2.204,0.641-2.683c-0.037-0.184-0.496-1.416-0.326-1.527
			c0.074-0.121,0.976,0.959,0.976,0.961c0.242,0.258,0.734,0.894,1.135,0.602c0.338-0.381,0.24-1.129,0.195-1.574
			c-0.055-0.539-0.176-1.068-0.328-1.588c-0.18-0.611-0.57-1.285-0.607-1.922c-0.029-0.51,0.162-0.451,0.553-0.195
			c0.748,0.49,1.363,1.303,1.842,2.045c0.283,0.44,0.512,0.906,0.691,1.398c0.201,0.557,0.234,1.324,0.545,1.791
			c0.184-0.137,0.158-0.72,0.176-0.916c0.066-0.807,0.066-1.62,0.027-2.428c-0.047-0.962-0.168-1.916-0.285-2.871
			c-0.084-0.694-0.357-1.645-0.234-2.355c0.125-0.722,0.48-0.162,0.748,0.259c0.789,1.23,1.199,2.597,1.728,3.944
			c0.221,0.564,0.41,0.768,0.631,0.104c0.481-1.447,0.502-3.203,0.463-4.711c-0.031-1.24-0.266-2.441-0.662-3.614
			c-0.098-0.294-1.248-2.548-0.875-2.974c0.287-0.688,3.035,3.078,3.082,3.072c0.396,0.047,0.365-1.398,0.357-1.598
			c-0.02-0.451-0.1-0.892-0.225-1.326c-0.139-0.486-0.58-1.099-0.576-1.586c0.006-0.676,0.685,0.071,0.984,0.355
			c0.617,0.586,1.105,1.248,1.451,2.023c0.115,0.26,0.156,0.674,0.383,0.468c0.139-0.349,0.135-0.784,0.158-1.151
			c0.111-1.746-0.043-3.527-0.465-5.226c-0.201-0.815-0.568-1.628-0.707-2.452c0.272,0,0.916,1.506,1.07,1.76
			c0.244,0.4,0.512,0.949,0.879,1.26c0.404,0.341,0.527,0.187,0.596-0.298c0.162-1.146-0.176-2.485-0.447-3.587
			c-0.357-1.449-0.951-2.812-1.664-4.118c-0.986-1.81-2.158-3.51-3.166-5.307c-0.994-1.773-1.772-3.638-2.557-5.511
			c-0.377-0.898-0.799-1.775-1.17-2.675c-0.066-0.159-0.332-0.636-0.252-0.819c0-0.506,1.133,0.492,1.225,0.572
			c0.685,0.597,1.322,1.258,1.922,1.94c0.527,0.599,0.982,1.577,1.603,2.042c0.547,0.409,0.316-0.407,0.242-0.814
			c-0.131-0.719-0.336-1.451-0.693-2.092c-0.149-0.267-0.328-0.51-0.516-0.749c-0.267-0.341-1.176-0.978-1.211-1.412
			c-0.025-0.042-0.035-0.083-0.053-0.124c0.223-0.135,1.439,0.883,1.557,0.962c0.455,0.306,0.967,0.732,1.498,0.903
			c0.502,0.161,0.564-0.002,0.385-0.479c-0.951-2.539-3.898-3.994-5.703-5.787c-0.301-0.299-0.695-0.637-0.148-0.785
			c0.596-0.16,1.746,0.423,2.244,0.645c1.088,0.481,2.062,1.132,2.955,1.916c0.533,0.469,1.115,1.391,1.762,1.654
			c0.256,0.105,0.217,0.203,0.307-0.06c0-0.864-0.609-1.975-1.037-2.703c-0.285-0.483-0.873-0.955-1.027-1.481
			c-0.074-0.251-0.19-0.25,0.096-0.206c0.606,0.093,5.027,4.324,5.223,3.924c-0.057-0.379-0.396-0.766-0.588-1.077
			c-0.51-0.825-0.926-1.682-1.344-2.558c-0.793-1.663-1.852-3.217-3.004-4.652c-2.287-2.85-5.15-4.943-8.209-6.902
			c-1.623-1.039-3.279-1.798-5.037-2.575c-0.273-0.12-1.809-0.649-1.699-1.172c0.232-0.695,3.377-0.466,2.383-1.486
			c-0.33-0.34-1.691-0.765-1.654-1.384c0-0.53,1.32-0.818,1.637-0.922c1.209-0.398,3.156-0.9,3.408-2.427
			c0.207-1.255-1.477-0.588-2.207-0.849c-0.316-0.113-0.686-0.324-0.471-0.672c0.732-0.641,2.231-0.649,3.111-0.874
			c1.184-0.303,2.586-0.61,3.59-1.359c0.408-0.306,0.594-0.532,0.027-0.625c-0.685-0.112-1.549,0.167-2.217,0.245
			c-0.637,0.073-1.275,0.125-1.918,0.114c-0.346-0.006-1.318,0.039-0.848-0.383c0.434-0.39,1.531-0.499,2.051-0.65
			c0.885-0.254,1.758-0.525,2.623-0.838c1.947-0.703,3.879-1.374,5.846-2.022c0.535-0.177,1.408-0.487,0.387-0.576
			c-1.277-0.111-2.578,0.083-3.848-0.155c-0.674-0.126-1.33-0.339-2.006-0.471c-0.211-0.041-1.273-0.09-1.471-0.335
			c-0.316-0.087,0.082-0.212,0.166-0.261c0.465-0.271,1.143-0.27,1.662-0.453c0.443-0.156,1.945-0.705,2.035-1.205
			c0.27-0.449-2.162-0.775-2.207-0.786c-0.635-0.155-3.918-1.148-3.082-2.024c0.494-0.52,1.619-0.657,2.273-0.776
			c1.35-0.245,2.838,0.034,4.135-0.243c-1.23-0.493-2.672-0.439-3.93-0.929c-0.363-0.142-0.701-0.332-1.018-0.559
			c-0.188-0.135-0.971-0.479-1.053-0.67c-0.355-0.305,0.906-0.661,1.055-0.708c0.428-0.134,3.533-0.724,3.465-0.917
			c-1.141-0.489-2.588-0.033-3.768-0.387c-0.889-0.266,0.416-0.475,0.812-0.574c1.332-0.333,2.854-0.552,4.072-1.236
			c0.379-0.214,0.838-0.5,0.219-0.628c-0.148-0.03-4.801,0.563-4.512-0.253c0.377-0.424,1.172-0.471,1.688-0.52
			c1.031-0.098,2.059-0.078,3.033-0.473c0.303-0.123,1.08-0.395,0.781-0.758c-1.094-0.438-2.41-0.389-3.551-0.76
			c-0.285-0.092-1.512-0.388-1.467-0.863c0.1-0.601,2.06-0.988,2.406-1.123c1.785-0.695,3.473-1.648,5.121-2.619
			c0.176-0.104,1.209-0.58,1.266-0.868c0.203-0.227-0.201-0.13-0.307-0.134c-0.682-0.023-1.586,0.404-2.225,0.584
			c-1.055,0.296-2.107,0.609-3.176,0.857c-0.537,0.125-2.201,0.688-2.764,0.325c-0.715-0.165,1.244-1.329,1.285-1.356
			c1.113-0.745,2.166-1.536,3.076-2.527c1.041-1.135,1.947-2.417,2.707-3.756c0.383-0.674,1.215-1.852,1.174-2.69
			c-0.031-0.61-0.457-0.356-0.889-0.138c-1.014,0.514-1.961,0.949-3.078,1.182c-1.873,0.389-3.801,0.43-5.688,0.725
			c-0.672,0.104-1.346,0.229-1.998,0.417c-0.338,0.097-0.795,0.394-1.152,0.351c-0.516,0-0.523-0.58-0.779-0.933
			c-0.351-0.487-0.945-0.801-1.478-1.051c-0.928-0.436-1.941-0.959-2.977-1.073c-1.092-0.121-2.207,0.24-3.25,0.496
			c-1.193,0.293-2.479,0.102-3.672-0.089c-0.324-0.052-2.057-0.169-2.146-0.681c-0.227-1.026,6.51-1.644,6.988-1.736
			c0.305-0.059,1.238-0.159,1.199-0.621c-0.188-0.504-1.049-0.648-1.49-0.752c-1.342-0.314-2.764-0.67-4.139-0.811
			c-1.529-0.158-3.074,0.071-4.605-0.075c-0.365-0.035-1.053-0.059-1.035-0.547c0.109-0.47,0.713-0.836,1.074-1.087
			c1.01-0.7,2.127-1.162,3.305-1.492c1.207-0.338-0.506-0.409-0.934-0.427c-1.396-0.057-2.793,0.055-4.139,0.448
			c-0.982,0.287-2.141,1.054-3.18,1.005c-0.803,0-1.789-0.826-2.461-1.201c-0.455-0.255-0.719-0.439-0.273-0.842
			c0.279-0.252,1.957-0.713,1.848-1.178c-0.236-0.508-2.035-0.443-2.393-0.474c-0.475-0.04-1.592-0.011-0.838-0.555
			c0.506-0.366,1.205-0.584,1.766-0.842c1.021-0.471,2.035-0.969,3.076-1.396c0.512-0.21,1.031-0.368,1.57-0.483
			c0.311-0.066,0.609-0.035,0.393-0.28c-0.721-0.36-1.746-0.393-2.531-0.401c-0.967-0.011-1.834,0.18-2.65,0.704
			c-0.723,0.464-1.344,1.038-2.217,1.179c-0.213,0.035-1.377,0.168-1.469-0.164c-0.137-0.256,2.436-1.207,2.734-1.359
			c0.271-0.139,3.412-1.6,3.293-1.865c-0.186-0.119-0.506-0.086-0.713-0.082c-0.848,0.016-1.697,0.119-2.535,0.25
			c-1.205,0.188-2.561,0.403-3.627,1.043c-0.648,0.389-1.088,1.023-1.732,1.413c-1.131,0.687-2.961,0.896-4.174,0.308
			c-1.152-0.562-0.666-1.826-0.119-2.682c0.967-1.512,2.238-2.791,3.147-4.351c0.135-0.229,0.875-1.338,0.414-1.39
			c-1.207,0.482-2.188,1.799-3.188,2.586c-0.744,0.586-1.594,0.952-2.283,1.615c-0.191,0.184-0.949,1.185-1.318,1.199
			c-0.256,0.154-0.148-0.135-0.148-0.27c0-0.634,0.533-1.412,0.73-2.016c0.252-0.776,0.441-1.575,0.613-2.373
			c0.072-0.33,0.359-1.232-0.047-1.458c-0.396-0.169-1.023,0.345-1.314,0.547c-1.34,0.933-2.514,2.14-3.543,3.398
			c-0.436,0.532-0.963,1.309-1.66,1.536c-1.43,0.465,0.658-2.742,0.533-3.087c0.1-0.445-1.014,0.571-1.098,0.658
			c-0.307,0.313-1.203,1.837-1.551,1.526c-0.611-1.467,0.957-3.471,1.555-4.605c0.307-0.582,0.564-1.19,0.777-1.812
			c0.061-0.178,0.346-0.773,0.252-0.96c0-0.323-0.355,0.228-0.396,0.286c-0.565,0.818-1.061,1.682-1.633,2.494
			c-0.291,0.412-1.842,2.559-2.113,0.985c-0.141-0.807,0.475-1.866,0.734-2.556c0.312-0.831,0.609-1.814,0.551-2.715
			c-0.102-1.565-1.451-0.074-1.912,0.509c-0.66,0.837-1.193,1.792-1.555,2.797c-0.358,0.996-0.27,1.909-0.404,2.935
			c-0.08,0.622-0.272,1.451-0.648,1.967c-0.451,0.616-0.516-0.049-0.582-0.537c-0.043-0.32-0.006-1.777-0.576-1.438
			c-0.451,0.552-0.496,1.323-0.602,1.994c-0.055,0.339-0.781,2.703-1.393,1.967c-0.203-0.762,0.123-1.736,0.305-2.467
			c0.262-1.061,0.525-2.119,0.705-3.197c0.053-0.316,0.381-1.328,0.192-1.656c0-0.062-0.023-0.092-0.041-0.143
			c-0.266,0.027-0.644,1.37-0.697,1.502c-0.233,0.564-0.467,1.169-0.815,1.675c-0.176,0.255-0.514,0.722-0.885,0.602
			c-0.217-0.064-0.25-0.281-0.33-0.461c-0.363-0.826-0.49-1.777-0.83-2.621c-0.152-0.377-0.396-1.216-0.76-0.674
			c-0.18,0.27-0.148,0.822-0.174,1.128c-0.082,0.981-0.08,1.969-0.096,2.952c-0.019,1.273,0.037,2.633-0.375,3.857
			c-0.059,0.172-0.613,1.612-1.008,1.387c-0.123-0.154-0.066-0.479-0.051-0.655c0.066-0.813,0.186-1.62,0.199-2.438
			c0.002-0.112,0.082-0.887-0.055-0.969c-0.062-0.141-0.43,0.817-0.471,0.914c-0.197,0.459-0.465,1.055-0.892,1.35
			c-0.406,0.281-0.547,0.166-0.693-0.277c-0.252-0.759-0.273-1.388-0.697-2.088c-0.535-0.885-0.627-1.456-0.77-2.477
			c-0.096-0.697-0.315-1.253-0.771-1.796c-0.42-0.497-0.935-0.916-1.418-1.35c-0.102-0.092-0.67-0.785-0.9-0.745
			c-0.375-0.081-0.065,1.133-0.027,1.267c0.262,0.938,1.422,2.337,0.852,3.362c-0.645,1.161-1.777-1.487-2.258-1.931
			c-0.277-0.258-0.645-0.642-0.838-0.25c0,0.789,0.277,1.524,0.219,2.334c-0.018,0.256-0.051,1.344-0.484,1.312
			c-0.439-0.152-0.514-1.282-0.852-0.766c-0.26,0.397,0.121,1.34-0.504,1.535c-0.404,0.047-0.766-0.361-1.103-0.05
			c-0.213,0.319-0.023,1.029-0.5,1.077c-0.44-0.042-0.9-0.683-1.15-0.992c-0.809-1.002-1.326-2.201-1.902-3.341
			c-0.898-1.775-1.908-3.517-3.098-5.112c-0.77-1.033-2.139-2.896-3.633-2.984c-0.498-0.029-0.641,0.143-0.451,0.609
			c0.158,0.389,0.527,0.77,0.791,1.08c0.664,0.779,1.342,1.549,1.975,2.355c0.875,1.11,2.475,3.186,2.008,4.785
			c-0.18,0.612-0.443,0.288-0.715-0.127c-0.473-0.716-0.936-1.396-1.623-1.921c-1.07-0.816-2.342-1.31-3.51-1.963
			c-1.115-0.623-2.176-1.264-3.432-1.552c-0.244-0.057-1.59-0.396-1.75-0.048c-0.201,0.342,1.906,1.573,2.176,1.805
			c0.711,0.613,1.107,1.331,1.422,2.205c0.402,1.118,0.992,1.773,1.842,2.597c0.324,0.313,2.045,2.235,0.883,2.605
			c-0.58,0.073-1.291-0.471-1.738-0.751c-1.824-1.143-3.641-2.293-5.547-3.295c-1.81-0.95-3.699-1.715-5.631-2.376
			c-0.93-0.317-1.875-0.604-2.83-0.838c-0.322-0.079-0.969-0.336-1.326-0.249c-0.279,0.067-0.268-0.02-0.131,0.233
			c0.242,0.447,1.396,0.853,1.781,1.074c1.16,0.669,2.424,1.339,3.361,2.318c0.787,0.823,1.068,1.864-0.412,1.62
			c-1.803-0.299-3.537-1.04-5.316-1.458c-1.705-0.4-3.447-0.618-5.197-0.657c-0.199-0.005-2.312-0.158-2.463,0.26
			c-0.24,0.231,2.828,1.133,2.908,1.156c1.5,0.439,3.062,0.865,4.441,1.621c0.492,0.27,1.012,0.609,1.305,1.105
			c0.408,0.695,0.166,1.358-0.652,1.514c-0.832,0.158-1.795-0.096-2.596-0.273c-1.943-0.429-3.852-0.963-5.834-1.178
			c-0.644-0.069-7.4-0.572-7.314,0.385c0.115,0.233,0.521,0.339,0.74,0.426c0.756,0.301,1.555,0.506,2.336,0.73
			c1.006,0.289,2.027,0.553,3.016,0.903c0.223,0.079,0.818,0.205,0.955,0.429c0.516,0.424-1.168,0.648-1.301,0.671
			c-1.672,0.28-3.461,0.326-5.08,0.861c-0.496,0.164-0.834,0.312-0.293,0.671c0.654,0.435,1.43,0.506,1.936,1.159
			c0.252,0.326,0.383,0.726,0.561,1.091c0.133,0.271,0.447,0.646,0.467,0.973c0.037,0.394-0.227,0.543-0.59,0.602
			c-0.439,0.071-0.799-0.098-1.139-0.357c-0.758-0.58-1.326-1.23-2.193-1.669c-0.678-0.343-1.398-0.612-2.121-0.839
			c-0.389-0.123-1.049-0.422-1.473-0.355c-0.266,0.041-0.283-0.054-0.172,0.194c0.49,0.428,1.102,0.708,1.613,1.11
			c0.307,0.24,0.846,0.623,0.682,1.08c-0.275,0.474-0.963,0.627-1.455,0.73c-1.213,0.254-2.443,0.038-3.668,0.141
			c-0.895,0.075-1.76,0.317-2.6,0.628c-0.934,0.344-2.131,0.761-2.875,1.473c-0.4,0.384-0.311,0.574,0.221,0.678
			c1.414,0.273,2.949-0.099,4.379-0.043c0.443,0.018,0.961,0.047,1.328,0.33c1.631,1.305-2.258,1.26-2.834,1.396
			c-0.656,0.156-1.301,0.371-1.922,0.633c-0.264,0.111-0.889,0.287-1.051,0.555c-0.539,0.497,1.129,0.268,1.238,0.37
			c0.312,0.042,0.043,0.188-0.059,0.294c-0.311,0.323-1.051,0.492-1.453,0.646c-1.74,0.666-3.404,1.33-4.996,2.307
			c-0.816,0.502-1.615,1.045-2.375,1.631c-0.328,0.253-0.826,0.559-1.062,0.92c-0.523,0.795,0.844,0.219,1.234,0.113
			c0.436-0.117,1.008-0.33,0.783,0.263c-0.297,0.787-1.668,1.311-2.346,1.606c-1.703,0.74-3.391,1.455-5.025,2.338
			c-1.238,0.67-2.477,1.338-3.715,2.008c-0.357,0.192-1.062,0.422-1.295,0.769c-0.275,0.206-0.096,0.188,0.1,0.233
			c0.613,0.145,1.777-0.338,2.348-0.461c0.352-0.075,1.184-0.404,1.541-0.256c0.318,0,0.145,0.141,0.037,0.293
			c-0.258,0.365-1.004,0.637-1.379,0.834c-0.766,0.404-1.557,0.789-2.369,1.091c-1.176,0.436-2.447,0.45-3.678,0.648
			c-1.99,0.321-3.975,0.733-5.93,1.231c-0.221,0.057-2.553,0.588-2.342,0.915c1.045,0.427,2.49,0.108,3.605,0.239
			c0.307,0.037,1.24,0.087,1.375,0.496c0.465,1.047-5.623,2.729-6.217,2.918c-0.975,0.311-2.131,0.447-3.049,0.887
			c-0.281,0.135-0.463,0.118-0.178,0.332c1.363,0.438,2.93-0.075,4.254,0.304c-0.398,0.357-1.467,0.388-1.938,0.499
			c-0.641,0.152-1.279,0.321-1.9,0.539c-0.826,0.291-1.605,0.688-2.326,1.188c-0.82,0.571-1.562,1.14-2.527,1.442
			c-1.484,0.467-3.062,0.564-4.605,0.688c-0.111,0.009-1.199-0.007-1.268,0.164c-0.172,0.092,0.588,0.291,0.627,0.301
			c0.85,0.218,1.717,0.374,2.555,0.637c0.117,0.037,0.637,0.15,0.695,0.309c0.322,0.372-1.125,0.629-1.279,0.658
			c-1.668,0.324-3.406,0.447-5.008,1.057c-0.84,0.319-0.576,0.48,0.201,0.54c1.02,0.077,2.633-0.183,3.596,0.341
			c0.535,0.172,0.314,0.604,0.016,0.893c-0.537,0.52-1.383,0.742-2.094,0.871c-2.643,0.479-5.324-0.23-7.934,0.609
			c-3.34,1.074-6.244,3.735-8.527,6.308c-1.059,1.193-2.088,2.487-2.775,3.936c-0.178,0.375-0.781,1.498-0.523,1.946
			c0.156,0.544,0.898-0.401,1.037-0.556c1.234-1.382,2.377-2.834,3.775-4.061c2.445-2.146,5.58-3.821,8.775-4.489
			c1.672-0.351,3.225-0.151,4.721,0.686c1.305,0.732,2.896,2.089,3.185,3.644c0.232,1.24-1.082,1.91-1.98,2.456
			c-3.676,2.232-7.537,4.157-11.271,6.292c-3.785,2.166-7.527,4.403-11.184,6.781c-7.324,4.764-14.467,9.801-21.334,15.203
			c-3.465,2.725-6.836,5.55-10.156,8.449c-1.564,1.367-3.096,2.783-4.586,4.232c-1.232,1.196-2.551,2.398-3.559,3.798
			c-0.264,0.365-0.586,0.809,0.027,0.781c0.404-0.017,0.934-0.403,1.275-0.586c0.795-0.423,1.567-0.889,2.338-1.35
			c1.033-0.616,2.061-1.242,3.102-1.843c0.52-0.3,1.094-0.702,1.676-0.872c0.719-0.209,0.467,0.245,0.17,0.711
			c-1.098,1.725-2.467,3.286-3.639,4.964c-1.18,1.69-2.275,3.439-3.295,5.229c-2.018,3.537-4.01,7.238-5.334,11.1
			c-0.078,0.23-0.744,1.803-0.373,2.092c0.346,0.404,1.879-1.482,2.021-1.638c0.406-0.442,3.377-4.484,4.369-3.46
			c0.334,0.344,0.25,1.15,0.234,1.572c-0.065,1.718-0.432,3.464-0.799,5.139c-0.986,4.5-1.99,8.993-2.865,13.517
			c-0.393,2.02-0.723,4.065-0.934,6.114c-0.103,1.01-0.359,2.357-0.02,3.361c0.545,1.602,2.418-1.703,2.627-2.039
			c1.146-1.85,2.129-3.799,3.148-5.721c0.596-1.125,1.211-2.822,2.205-3.684c0.482-0.542,0.594,0.084,0.613,0.516
			c0.07,1.553-0.27,3.194-0.521,4.719c-1.387,8.368-3.061,16.721-1.977,25.23c0.104,0.82,0.094,2.326,0.652,3.033
			c0.289,0.606,0.662-0.092,0.805-0.402c0.668-1.44,0.928-3.113,1.264-4.654c0.441-2.036,0.772-4.099,1.258-6.125
			c0.066-0.283,0.318-1.904,0.738-1.403c0.449,1.122,0.33,2.663,0.367,3.839c0.135,4.203-0.227,8.396-0.127,12.59
			c0.049,2.033,0.242,4.074,0.578,6.08c0.121,0.724,0.211,2.322,0.82,2.882c0.426,0.565,0.789-0.367,0.924-0.688
			c0.662-1.575,0.947-3.288,1.57-4.878c0.162-0.416,0.43-1.312,0.951-0.863c0.57,0.701,0.65,2.02,0.783,2.857
			c0.273,1.732,0.49,3.536,0.43,5.293c-0.033,0.961-0.326,1.885-0.4,2.843c-0.152,1.93-0.111,3.896-0.002,5.828
			c0.066,1.145-0.051,2.945,0.562,3.985c0.305,0.516,0.541,0.27,0.815-0.158c0.865-1.356,1.256-3.071,1.853-4.551
			c0.137-0.343,0.656-1.913,1.184-1.959c0.5-0.125,0.512,1.218,0.527,1.459c0.285,3.914,0.082,7.723,1.221,11.524
			c0.502,1.675,1.086,3.316,1.318,5.058c0.234,1.746,0.148,3.508-0.027,5.256c-0.213,2.122-0.576,4.227-0.773,6.35
			c-0.027,0.304-0.301,1.759,0.262,1.668c0.268-0.179,0.467-0.51,0.639-0.773c0.582-0.885,1.105-1.806,1.656-2.71
			c0.291-0.478,1.152-2.335,1.877-2.404c1.152-0.288,0.234,4.649,0.166,4.966c-0.26,1.204-0.619,2.373-1.184,3.471
			c-0.668,1.299-1.66,2.377-2.52,3.547c-1.002,1.366-2.652,3.846-2.244,5.724c0.258,1.181,1.664,1.047,2.596,0.913
			c1.861-0.267,3.645-0.926,5.475-1.335c0.285-0.063,1.453-0.444,1.564,0.035c-0.18,0.807-1.264,1.539-1.809,2.064
			c-1.535,1.477-3.062,2.944-4.422,4.589c-0.697,0.843-2.709,3.011-2.139,4.323c0.584,1.342,3.975,0.19,4.758-0.016
			c1.23-0.324,2.461-0.648,3.691-0.973c0.379-0.101,0.924-0.308,1.324-0.259c0.58,0.07,0.361,0.357,0.029,0.717
			c-1.215,1.327-2.717,2.395-4.031,3.626c-1.369,1.282-2.684,2.64-3.812,4.141c-0.49,0.651-2.145,2.69-1.111,3.545
			c0.383,0.315,1.049,0.271,1.498,0.255c0.689-0.025,1.383-0.139,2.059-0.268c0.584-0.111,1.166-0.223,1.748-0.334
			c0.123-0.023,0.426-0.13,0.547-0.079c0.367,0-0.072,0.273-0.195,0.351c-0.727,0.457-1.473,0.892-2.156,1.415
			c-0.393,0.303-1.004,0.757-1.055,1.301c-0.127,1.373,2.672,1.956,3.516,2.207c2.025,0.6,4.115,1.029,6.18,1.468
			c1.441,0.307,2.973,0.721,4.461,0.655c1.352-0.059,1.592-0.81,1.279-2.03c-0.289-1.133-0.713-2.249-0.727-3.433
			c-0.014-1.175,0.387-2.314,0.822-3.388c0.557-1.371,1.201-2.758,1.389-4.242c0.145-1.144-0.016-2.295-0.248-3.415
			c-0.359-1.73-1.391-3.91-0.342-5.591c0.773-1.24,1.582-2.244,2.139-3.627c0.818-2.03,1.234-4.172,1.223-6.359"/>
	</g>
	<g id="POLYLINE_655_">
		<path fill="none" stroke="#FB8604" stroke-width="3" stroke-linecap="round" stroke-linejoin="round" stroke-miterlimit="10" d="
			M607.354,285.986c0.66-4.23,1.697-8.219,2.889-12.328c1.115-3.848,1.824-7.818,1.971-11.826c0.127-3.469-0.162-6.877-1.119-10.222
			c-1.146-4.003-2.682-7.95-4.447-11.72c-1.467-3.135-3.066-6.184-4.977-9.074"/>
	</g>
	<g id="POLYLINE_654_">
		<path fill="none" stroke="#FB8604" stroke-width="3" stroke-linecap="round" stroke-linejoin="round" stroke-miterlimit="10" d="
			M554.717,266.081c-1.861,3.479-3.828,7.051-4.844,10.889c-0.773,2.915-0.66,5.896,0.088,8.806
			c0.947,3.686,2.666,7.156,4.268,10.59c1.023,2.197,2.029,4.404,3.076,6.591c0.356,0.742,0.773,1.523,1.4,2.075
			c1.139,1.006,2.695,0.772,4.041,0.383c3.891-1.121,7.428-3.488,10.898-5.493c2.365-1.366,4.906-2.733,7.713-2.726
			c1.721,0.004,3.322,0.591,4.791,1.463c3.324,1.974,6.19,5.021,8.568,8.035c0.762,0.963,1.379,2.303,2.367,3.055
			c0.289,0.22,0.606,0.339,0.967,0.365c2.09,0.156,4.479-1.721,5.967-2.932c2.627-2.135,4.717-5.027,5.223-8.433
			c0.549-3.694-0.641-7.655-1.496-11.218c-0.992-4.129-2.103-8.279-3.424-12.316c-0.32-0.979-0.703-1.93-1.092-2.883"/>
	</g>
	<g id="POLYLINE_653_">
		<path fill="none" stroke="#FB8604" stroke-width="3" stroke-linecap="round" stroke-linejoin="round" stroke-miterlimit="10" d="
			M580.479,282.903c0.664,1.125,0.734,2.458,0.965,3.714c0.271,1.486,0.625,3.054,1.283,4.423c0.144,0.302,0.412,0.972,0.846,0.897
			c0.693-0.174,1.127-1.975,1.336-2.43c0.912-1.983,2.281-3.938,4.197-5.069c2.4-1.415,5.344-1.325,7.814-2.584
			c1.473-0.75,2.686-1.88,3.613-3.242c0.293-0.429,1.996-2.981,0.436-2.656c-1.25,0.261-2.365,0.97-3.646,1.188
			c-1.469,0.251-2.973,0.167-4.445-0.003c-4.195-0.482-8.404-1.291-12.533-2.173c-1.93-0.412-3.898-0.858-5.766-1.507
			c-1.506-0.523-2.732-1.355-4.115-2.117c-0.359-0.199-0.771-0.49-0.887,0.029c0,0.838,0.629,1.776,1.045,2.459
			C573.014,277.754,578.133,278.996,580.479,282.903z"/>
	</g>
	<g id="POLYLINE_652_">
		<path fill="none" stroke="#FB8604" stroke-width="3" stroke-linecap="round" stroke-linejoin="round" stroke-miterlimit="10" d="
			M510.219,242.58c-2.869-2.803-5.164-6-7.014-9.557c-1.67-3.214-2.996-6.846-2.979-10.509c0.035-6.89,4.902-12.33,11.461-13.944
			c4.984-1.227,9.877-0.145,14.166,2.591"/>
	</g>
</g>
<g id="AG-OUTLINE">
	<g id="POLYLINE_671_">
		
			<path fill="none" stroke="#FB8604" stroke-width="3.5" stroke-linecap="round" stroke-linejoin="round" stroke-miterlimit="10" d="
			M487.33,593.051c4.096,1.496,8.256,2.246,12.619,2.14c4.15-0.102,8.42-0.113,12.525-0.792c2-0.331,4.234-0.892,5.6-2.516
			c1.158-1.378,1.516-3.267,1.559-5.019c0.16-6.361-2.715-12.326-8.172-15.676c-3.152-1.938-6.814-3.158-10.449-3.8
			c-1.889-0.334-3.832-0.51-5.75-0.368c-0.918,0.068-1.828,0.208-2.719,0.45c-0.385,0.104-0.775,0.296-1.164,0.372
			c-0.27,0.053-0.309,0.239-0.492-0.029c-0.094-0.14-0.188-0.279-0.279-0.422c-0.82-1.291-1.447-2.726-1.377-4.28
			c0.066-1.444,0.525-2.842,0.656-4.28c0.147-1.6-0.057-3.207-0.227-4.796c-0.197-1.864-0.441-3.743-0.34-5.622
			c0.094-1.731,0.51-3.412,1.041-5.057c1.311-4.045,2.852-7.973,3.983-12.078c2.307-8.371,3.826-16.944,6.221-25.293
			c1.141-3.975,2.488-7.824,4.297-11.548c1.793-3.693,3.898-7.085,4.932-11.097c0.246-0.959,0.273-2.227,0.727-3.09
			c0.279-0.532,0.934-1,1.297-1.508c0.717-1.002,1.137-2.14,1.463-3.317c0.463-1.684,0.609-3.509,1.232-5.141
			c0.23-0.601,0.473-0.725,0.771-0.1c0.613,1.275,0.769,2.892,1,4.267c0.363,2.184,0.676,4.373,0.93,6.571
			c0.223,1.93,0.295,3.879,0.096,5.814c-0.1,0.974-0.271,1.94-0.352,2.916c-0.012,0.157-0.121,0.671,0.008,0.818
			c0.102,0.507,1.17-1.17,1.197-1.215c1.098-1.756,2.143-3.608,3.049-5.471c1.195-2.456,1.395-4.914,1.154-7.611
			c-0.156-1.745-0.519-3.531-0.453-5.289c0.014-0.389,0.014-1.116,0.506-1.223c1.486,0,2.713,2.739,3.166,3.821
			c0.535,1.272,0.832,2.593,0.965,3.964c0.078,0.815,0.1,1.636,0.086,2.453c-0.01,0.526-0.025,1.053-0.041,1.58
			c-0.006,0.172-0.096,0.618-0.006,0.783c0.131,0.241,0.152,0.094,0.27-0.164c0.42-0.925,0.728-1.91,1.084-2.86
			c0.275-0.738,0.559-1.478,0.912-2.184c0.127-0.256,0.312-0.735,0.574-0.893c0.994-0.895,0.902,4.337,0.897,4.418
			c-0.068,0.969-1.453,7.886-0.639,7.956c0.799-0.199,1.527-1.827,1.879-2.429c0.924-1.582,1.719-3.253,2.377-4.962
			c1.285-3.334,1.477-6.524,1.258-10.058c-0.117-1.886-0.211-3.78-0.027-5.665c0.025-0.276,0.066-1.645,0.514-1.434
			c0.168,0.169,0.233,0.506,0.305,0.723c0.315,0.938,0.533,1.904,0.85,2.841c0.166,0.491,0.459,1.681,1.065,1.857
			c1.42,0.355,2.139-3.682,2.295-4.442c0.375-1.811,0.478-3.656,0.455-5.502c-0.012-1.065-0.088-2.127-0.148-3.19
			c-0.02-0.336-0.084-0.714-0.002-1.042c0.664-0.133,2.402,9.074,2.5,10.065c0.41,4.166,0.037,8.393-0.373,12.542
			c-0.043,0.42-0.496,2.393-0.035,2.757c0.264,0.393,0.988-0.857,1.072-0.997c2.043-3.332,3.588-7.191,4.484-10.991
			c0.9-3.814,0.922-7.772,0.731-11.665c-0.055-1.145-0.125-2.289-0.158-3.434c-0.016-0.501-0.129-1.198,0.031-1.691
			c0.23-0.715,0.521,0.005,0.723,0.43c1.578,3.334,2.85,7.281,2.85,10.99c0,2.015-0.211,4.02-0.406,6.022
			c-0.107,1.103-0.232,2.207-0.316,3.311c-0.024,0.324-0.221,1.189-0.045,1.519c0.08,0.317,0.137,0.138,0.297-0.009
			c0.391-0.358,0.611-1.335,0.793-1.796c0.822-2.079,1.67-4.141,2.545-6.196c1.426-3.345,2.867-6.697,3.186-10.358
			c0.352-4.03-0.104-8.09,0.127-12.127c0.018-0.292-0.021-2.008,0.523-1.736c0.76,1.036,0.971,2.648,1.308,3.857
			c0.998,3.574,1.861,7.055,1.949,10.782c0.039,1.64-0.248,3.517,0.111,5.137c0.158,0.709,0.432,0.484,0.744-0.05
			c0.828-1.413,1.303-3.092,1.818-4.635c0.664-1.99,1.293-4.004,1.795-6.041c0.477-1.927,0.815-3.876,0.99-5.854
			c0.17-1.913,0.07-3.905,0.406-5.798c0.162-0.908,0.387-0.281,0.547,0.294c0.338,1.207,0.453,2.848,1.172,3.922
			c0.918,1.368,1.481-2.588,1.527-2.979c0.221-1.853,0.199-3.747,0.623-5.572c0.32-1.371,0.945-2.6,1.592-3.843
			c0.613-1.179,1.213-2.379,1.479-3.69c0.277-1.364,0.199-2.774,0.08-4.15c-0.221-2.551-0.803-5.057,0.059-7.538
			c0.643-1.852,1.119-3.724,1.67-5.604c0.584-1.996,1.227-3.97,1.654-6.007c0.316-1.501,0.486-3.044,0.508-4.578
			c0.012-0.819,0.004-1.641-0.049-2.459c-0.049-0.748-0.453-2.1-0.215-2.789c0.703-2.024,1.34-4.027,2.152-6.013
			c0.697-1.704,1.236-3.463,1.533-5.281c0.051-0.314,0.301-3.65,0.648-3.637c0.49,0.122,0.637,2.996,0.689,3.346
			c0.174,1.172,0.33,2.35,0.525,3.518c0.107,0.629,0.121,1.485,0.418,2.064c0.342,0.671,0.426-0.126,0.498-0.556
			c0.342-2.047,0.434-4.137,0.672-6.197c0.113-0.978,0.236-1.957,0.41-2.926c0.068-0.377,0.107-1.001,0.324-1.343
			c0.375-0.593,0.48,0.142,0.574,0.57c0.449,2.038,0.539,4.188,0.74,6.26c0.092,0.95,0.168,1.904,0.312,2.849
			c0.043,0.273,0.053,0.85,0.254,1.073c0.356,0.533,0.647-0.457,0.74-0.749c1.144-3.551,1.318-7.439,1.508-11.138
			c0.055-1.079,0.109-2.157,0.166-3.235c0.014-0.281,0.006-0.61,0.107-0.866c0.217,0.325,0.145,0.976,0.178,1.354
			c0.127,1.412,0.252,2.825,0.377,4.237c0.154,1.729,0.26,3.53,0.684,5.218c0.123,0.484,0.279,1.132,0.697,0.506
			c0.24-0.361,0.328-0.924,0.435-1.328c0.271-1.018,0.48-2.051,0.734-3.072c0.346-1.387,0.895-2.7,1.016-4.134
			c0.176-2.061-0.004-4.149,0.006-6.215c0.002-0.33-0.133-1.27,0.098-1.584c0.088-0.353,0.211-0.066,0.328,0.08
			c0.35,0.435,0.453,1.225,0.611,1.744c0.332,1.089,0.648,2.184,1.006,3.265c0.104,0.309,0.473,1.894,0.924,1.427
			c0.189-0.284,0.188-0.829,0.225-1.146c0.105-0.913,0.191-1.832,0.373-2.733c0.352-1.737,0.887-3.399,1.131-5.161
			c0.041-0.301,0.072-1.825,0.598-1.553c0.799,1.027,1.047,2.76,1.428,3.953c0.166,0.525,0.592,1.867,0.559,0.577
			c-0.055-2.159-0.387-4.333-0.598-6.481c-0.027-0.275-0.467-2.938-0.029-3.09c0.346-0.16,0.975,2.083,0.996,2.153
			c0.285,0.931,0.523,1.882,0.69,2.843c0.092,0.541-0.033,1.795,0.269,2.207c0.158,0.219,0.068,0.171,0.258-0.039
			c0.398-0.441,0.545-1.471,0.703-2.01c0.428-1.461,0.826-2.971,0.895-4.5c0.08-1.793-0.141-3.592-0.135-5.387
			c0.002-0.353-0.092-1.652,0.365-1.032c0.701,0.952,0.463,2.563,1.252,3.481c0.424,0.492,0.572-0.002,0.713-0.468
			c0.492-1.626,0.58-3.364,0.969-5.018c0.396-1.69,1.145-3.257,1.637-4.917c1.115-3.77,0.805-7.662,1.551-11.477
			c0.068-0.354,0.188-1.314,0.693-1.345c0.43,0.081,0.699,0.54,0.908,0.886c0.67,1.107,1.055,2.404,1.334,3.658
			c0.225,1.016,0.363,2.046,0.543,3.069c0.055,0.317,0.08,0.944,0.295,1.222c0.279,0.631,0.701-0.27,0.832-0.532
			c0.797-1.618,1.188-3.431,1.781-5.126c0.148-0.42,0.42-1.452,0.9-1.67c0.445-0.334,0.854,0.515,1.129,0.672
			c1.076,0.614,1.039-2.201,1.016-2.749c-0.084-1.862-1.15-3.581-1.043-5.448c0.113-1.987,1.227-3.756,1.148-5.79
			c-0.014-0.365-0.457-2.603-0.047-2.642c0.707,0.326,0.908,1.427,1.611,1.796c1.188,0.623,0.705-2.335,0.606-2.796
			c-0.027-0.131-0.461-1.365-0.295-1.442c0.205-0.096,0.934,0.94,1,1.014c0.248,0.267,0.727,0.862,1.117,0.548
			c0.346-0.362,0.219-1.195,0.172-1.615c-0.059-0.543-0.185-1.074-0.34-1.596c-0.172-0.582-0.598-1.28-0.596-1.891
			c0-0.518,0.232-0.385,0.602-0.129c0.738,0.51,1.344,1.299,1.822,2.048c0.285,0.446,0.514,0.922,0.689,1.422
			c0.191,0.54,0.225,1.28,0.525,1.733c0.184-0.137,0.158-0.72,0.176-0.916c0.066-0.807,0.066-1.62,0.027-2.428
			c-0.047-0.962-0.168-1.916-0.285-2.871c-0.084-0.694-0.357-1.645-0.234-2.355c0.125-0.722,0.48-0.162,0.748,0.259
			c0.789,1.23,1.199,2.597,1.728,3.944c0.221,0.564,0.41,0.768,0.631,0.104c0.481-1.447,0.502-3.203,0.463-4.711
			c-0.031-1.24-0.266-2.441-0.662-3.614c-0.098-0.294-1.248-2.548-0.875-2.974c0.287-0.688,3.035,3.078,3.082,3.072
			c0.396,0.047,0.365-1.398,0.357-1.598c-0.02-0.451-0.1-0.892-0.225-1.326c-0.139-0.486-0.58-1.099-0.576-1.586
			c0.006-0.676,0.685,0.071,0.984,0.355c0.617,0.586,1.105,1.248,1.451,2.023c0.115,0.26,0.156,0.674,0.383,0.468
			c0.139-0.349,0.135-0.784,0.158-1.151c0.111-1.746-0.043-3.527-0.465-5.226c-0.201-0.815-0.568-1.628-0.707-2.452
			c0.272,0,0.916,1.506,1.07,1.76c0.244,0.4,0.512,0.949,0.879,1.26c0.404,0.341,0.527,0.187,0.596-0.298
			c0.162-1.146-0.176-2.485-0.447-3.587c-0.357-1.449-0.951-2.812-1.664-4.118c-0.986-1.81-2.158-3.51-3.166-5.307
			c-0.994-1.773-1.772-3.638-2.557-5.511c-0.377-0.898-0.799-1.775-1.17-2.675c-0.066-0.159-0.332-0.636-0.252-0.819
			c0-0.506,1.133,0.492,1.225,0.572c0.685,0.597,1.322,1.258,1.922,1.94c0.527,0.599,0.982,1.577,1.603,2.042
			c0.547,0.409,0.316-0.407,0.242-0.814c-0.131-0.719-0.336-1.451-0.693-2.092c-0.149-0.267-0.328-0.51-0.516-0.749
			c-0.267-0.341-1.176-0.978-1.211-1.412c-0.025-0.042-0.035-0.083-0.053-0.124c0.223-0.135,1.439,0.883,1.557,0.962
			c0.455,0.306,0.967,0.732,1.498,0.903c0.502,0.161,0.564-0.002,0.385-0.479c-0.951-2.539-3.898-3.994-5.703-5.787
			c-0.301-0.299-0.695-0.637-0.148-0.785c0.596-0.16,1.746,0.423,2.244,0.645c1.088,0.481,2.062,1.132,2.955,1.916
			c0.533,0.469,1.115,1.391,1.762,1.654c0.256,0.105,0.217,0.203,0.307-0.06c0-0.864-0.609-1.975-1.037-2.703
			c-0.285-0.483-0.873-0.955-1.027-1.481c-0.074-0.251-0.19-0.25,0.096-0.206c0.606,0.093,5.027,4.324,5.223,3.924
			c-0.057-0.379-0.396-0.766-0.588-1.077c-0.51-0.825-0.926-1.682-1.344-2.558c-0.793-1.663-1.852-3.217-3.004-4.652
			c-2.287-2.85-5.15-4.943-8.209-6.902c-1.623-1.039-3.279-1.798-5.037-2.575c-0.273-0.12-1.809-0.649-1.699-1.172
			c0.232-0.695,3.377-0.466,2.383-1.486c-0.33-0.34-1.691-0.765-1.654-1.384c0-0.53,1.32-0.818,1.637-0.922
			c1.209-0.398,3.156-0.9,3.408-2.427c0.207-1.255-1.477-0.588-2.207-0.849c-0.316-0.113-0.686-0.324-0.471-0.672
			c0.732-0.641,2.231-0.649,3.111-0.874c1.184-0.303,2.586-0.61,3.59-1.359c0.408-0.306,0.594-0.532,0.027-0.625
			c-0.685-0.112-1.549,0.167-2.217,0.245c-0.637,0.073-1.275,0.125-1.918,0.114c-0.346-0.006-1.318,0.039-0.848-0.383
			c0.434-0.39,1.531-0.499,2.051-0.65c0.885-0.254,1.758-0.525,2.623-0.838c1.947-0.703,3.879-1.374,5.846-2.022
			c0.535-0.177,1.408-0.487,0.387-0.576c-1.277-0.111-2.578,0.083-3.848-0.155c-0.674-0.126-1.33-0.339-2.006-0.471
			c-0.211-0.041-1.273-0.09-1.471-0.335c-0.316-0.087,0.082-0.212,0.166-0.261c0.465-0.271,1.143-0.27,1.662-0.453
			c0.443-0.156,1.945-0.705,2.035-1.205c0.27-0.449-2.162-0.775-2.207-0.786c-0.635-0.155-3.918-1.148-3.082-2.024
			c0.494-0.52,1.619-0.657,2.273-0.776c1.35-0.245,2.838,0.034,4.135-0.243c-1.23-0.493-2.672-0.439-3.93-0.929
			c-0.363-0.142-0.701-0.332-1.018-0.559c-0.188-0.135-0.971-0.479-1.053-0.67c-0.355-0.305,0.906-0.661,1.055-0.708
			c0.428-0.134,3.533-0.724,3.465-0.917c-1.141-0.489-2.588-0.033-3.768-0.387c-0.889-0.266,0.416-0.475,0.812-0.574
			c1.332-0.333,2.854-0.552,4.072-1.236c0.379-0.214,0.838-0.5,0.219-0.628c-0.148-0.03-4.801,0.563-4.512-0.253
			c0.377-0.424,1.172-0.471,1.688-0.52c1.031-0.098,2.059-0.078,3.033-0.473c0.303-0.123,1.08-0.395,0.781-0.758
			c-1.094-0.438-2.41-0.389-3.551-0.76c-0.285-0.092-1.512-0.388-1.467-0.863c0.1-0.601,2.06-0.988,2.406-1.123
			c1.785-0.695,3.473-1.648,5.121-2.619c0.176-0.104,1.209-0.58,1.266-0.868c0.203-0.227-0.201-0.13-0.307-0.134
			c-0.682-0.023-1.586,0.404-2.225,0.584c-1.055,0.296-2.107,0.609-3.176,0.857c-0.537,0.125-2.201,0.688-2.764,0.325
			c-0.715-0.165,1.244-1.329,1.285-1.356c1.113-0.745,2.166-1.536,3.076-2.527c1.041-1.135,1.947-2.417,2.707-3.756
			c0.383-0.674,1.215-1.852,1.174-2.69c-0.031-0.61-0.457-0.356-0.889-0.138c-1.014,0.514-1.961,0.949-3.078,1.182
			c-1.873,0.389-3.801,0.43-5.688,0.725c-0.672,0.104-1.346,0.229-1.998,0.417c-0.338,0.097-0.795,0.394-1.152,0.351
			c-0.516,0-0.523-0.58-0.779-0.933c-0.351-0.487-0.945-0.801-1.478-1.051c-0.928-0.436-1.941-0.959-2.977-1.073
			c-1.092-0.121-2.207,0.24-3.25,0.496c-1.193,0.293-2.479,0.102-3.672-0.089c-0.324-0.052-2.057-0.169-2.146-0.681
			c-0.227-1.026,6.51-1.644,6.988-1.736c0.305-0.059,1.238-0.159,1.199-0.621c-0.188-0.504-1.049-0.648-1.49-0.752
			c-1.342-0.314-2.764-0.67-4.139-0.811c-1.529-0.158-3.074,0.071-4.605-0.075c-0.365-0.035-1.053-0.059-1.035-0.547
			c0.109-0.47,0.713-0.836,1.074-1.087c1.01-0.7,2.127-1.162,3.305-1.492c1.207-0.338-0.506-0.409-0.934-0.427
			c-1.396-0.057-2.793,0.055-4.139,0.448c-0.982,0.287-2.141,1.054-3.18,1.005c-0.803,0-1.789-0.826-2.461-1.201
			c-0.455-0.255-0.719-0.439-0.273-0.842c0.279-0.252,1.957-0.713,1.848-1.178c-0.236-0.508-2.035-0.443-2.393-0.474
			c-0.475-0.04-1.592-0.011-0.838-0.555c0.506-0.366,1.205-0.584,1.766-0.842c1.021-0.471,2.035-0.969,3.076-1.396
			c0.512-0.21,1.031-0.368,1.57-0.483c0.311-0.066,0.609-0.035,0.393-0.28c-0.721-0.36-1.746-0.393-2.531-0.401
			c-0.967-0.011-1.834,0.18-2.65,0.704c-0.723,0.464-1.344,1.038-2.217,1.179c-0.213,0.035-1.377,0.168-1.469-0.164
			c-0.137-0.256,2.436-1.207,2.734-1.359c0.271-0.139,3.412-1.6,3.293-1.865c-0.186-0.119-0.506-0.086-0.713-0.082
			c-0.848,0.016-1.697,0.119-2.535,0.25c-1.205,0.188-2.561,0.403-3.627,1.043c-0.648,0.389-1.088,1.023-1.732,1.413
			c-1.131,0.687-2.961,0.896-4.174,0.308c-1.152-0.562-0.666-1.826-0.119-2.682c0.967-1.512,2.238-2.791,3.147-4.351
			c0.135-0.229,0.875-1.338,0.414-1.39c-1.207,0.482-2.188,1.799-3.188,2.586c-0.744,0.586-1.594,0.952-2.283,1.615
			c-0.191,0.184-0.949,1.185-1.318,1.199c-0.256,0.154-0.148-0.135-0.148-0.27c0-0.634,0.533-1.412,0.73-2.016
			c0.252-0.776,0.441-1.575,0.613-2.373c0.072-0.33,0.359-1.232-0.047-1.458c-0.396-0.169-1.023,0.345-1.314,0.547
			c-1.34,0.933-2.514,2.14-3.543,3.398c-0.436,0.532-0.963,1.309-1.66,1.536c-1.43,0.465,0.658-2.742,0.533-3.087
			c0.1-0.445-1.014,0.571-1.098,0.658c-0.307,0.313-1.203,1.837-1.551,1.526c-0.611-1.467,0.957-3.471,1.555-4.605
			c0.307-0.582,0.564-1.19,0.777-1.812c0.061-0.178,0.346-0.773,0.252-0.96c0-0.323-0.355,0.228-0.396,0.286
			c-0.565,0.818-1.061,1.682-1.633,2.494c-0.291,0.412-1.842,2.559-2.113,0.985c-0.141-0.807,0.475-1.866,0.734-2.556
			c0.312-0.831,0.609-1.814,0.551-2.715c-0.102-1.565-1.451-0.074-1.912,0.509c-0.66,0.837-1.193,1.792-1.555,2.797
			c-0.358,0.996-0.27,1.909-0.404,2.935c-0.08,0.622-0.272,1.451-0.648,1.967c-0.451,0.616-0.516-0.049-0.582-0.537
			c-0.043-0.32-0.006-1.777-0.576-1.438c-0.451,0.552-0.496,1.323-0.602,1.994c-0.055,0.339-0.781,2.703-1.393,1.967
			c-0.203-0.762,0.123-1.736,0.305-2.467c0.262-1.061,0.525-2.119,0.705-3.197c0.053-0.316,0.381-1.328,0.192-1.656
			c0-0.062-0.023-0.092-0.041-0.143c-0.266,0.027-0.644,1.37-0.697,1.502c-0.233,0.564-0.467,1.169-0.815,1.675
			c-0.176,0.255-0.514,0.722-0.885,0.602c-0.217-0.064-0.25-0.281-0.33-0.461c-0.363-0.826-0.49-1.777-0.83-2.621
			c-0.152-0.377-0.396-1.216-0.76-0.674c-0.18,0.27-0.148,0.822-0.174,1.128c-0.082,0.981-0.08,1.969-0.096,2.952
			c-0.019,1.273,0.037,2.633-0.375,3.857c-0.059,0.172-0.613,1.612-1.008,1.387c-0.123-0.154-0.066-0.479-0.051-0.655
			c0.066-0.813,0.186-1.62,0.199-2.438c0.002-0.112,0.082-0.887-0.055-0.969c-0.062-0.141-0.43,0.817-0.471,0.914
			c-0.197,0.459-0.465,1.055-0.892,1.35c-0.406,0.281-0.547,0.166-0.693-0.277c-0.252-0.759-0.273-1.388-0.697-2.088
			c-0.535-0.885-0.627-1.456-0.77-2.477c-0.096-0.697-0.315-1.253-0.771-1.796c-0.42-0.497-0.935-0.916-1.418-1.35
			c-0.102-0.092-0.67-0.785-0.9-0.745c-0.375-0.081-0.065,1.133-0.027,1.267c0.262,0.938,1.422,2.337,0.852,3.362
			c-0.645,1.161-1.777-1.487-2.258-1.931c-0.277-0.258-0.645-0.642-0.838-0.25c0,0.789,0.277,1.524,0.219,2.334
			c-0.018,0.256-0.051,1.344-0.484,1.312c-0.439-0.152-0.514-1.282-0.852-0.766c-0.26,0.397,0.121,1.34-0.504,1.535
			c-0.404,0.047-0.766-0.361-1.103-0.05c-0.213,0.319-0.023,1.029-0.5,1.077c-0.44-0.042-0.9-0.683-1.15-0.992
			c-0.809-1.002-1.326-2.201-1.902-3.341c-0.898-1.775-1.908-3.517-3.098-5.112c-0.77-1.033-2.139-2.896-3.633-2.984
			c-0.498-0.029-0.641,0.143-0.451,0.609c0.158,0.389,0.527,0.77,0.791,1.08c0.664,0.779,1.342,1.549,1.975,2.355
			c0.875,1.11,2.475,3.186,2.008,4.785c-0.18,0.612-0.443,0.288-0.715-0.127c-0.473-0.716-0.936-1.396-1.623-1.921
			c-1.07-0.816-2.342-1.31-3.51-1.963c-1.115-0.623-2.176-1.264-3.432-1.552c-0.244-0.057-1.59-0.396-1.75-0.048
			c-0.201,0.342,1.906,1.573,2.176,1.805c0.711,0.613,1.107,1.331,1.422,2.205c0.402,1.118,0.992,1.773,1.842,2.597
			c0.324,0.313,2.045,2.235,0.883,2.605c-0.58,0.073-1.291-0.471-1.738-0.751c-1.824-1.143-3.641-2.293-5.547-3.295
			c-1.81-0.95-3.699-1.715-5.631-2.376c-0.93-0.317-1.875-0.604-2.83-0.838c-0.322-0.079-0.969-0.336-1.326-0.249
			c-0.279,0.067-0.268-0.02-0.131,0.233c0.242,0.447,1.396,0.853,1.781,1.074c1.16,0.669,2.424,1.339,3.361,2.318
			c0.787,0.823,1.068,1.864-0.412,1.62c-1.803-0.299-3.537-1.04-5.316-1.458c-1.705-0.4-3.447-0.618-5.197-0.657
			c-0.199-0.005-2.312-0.158-2.463,0.26c-0.24,0.231,2.828,1.133,2.908,1.156c1.5,0.439,3.062,0.865,4.441,1.621
			c0.492,0.27,1.012,0.609,1.305,1.105c0.408,0.695,0.166,1.358-0.652,1.514c-0.832,0.158-1.795-0.096-2.596-0.273
			c-1.943-0.429-3.852-0.963-5.834-1.178c-0.644-0.069-7.4-0.572-7.314,0.385c0.115,0.233,0.521,0.339,0.74,0.426
			c0.756,0.301,1.555,0.506,2.336,0.73c1.006,0.289,2.027,0.553,3.016,0.903c0.223,0.079,0.818,0.205,0.955,0.429
			c0.516,0.424-1.168,0.648-1.301,0.671c-1.672,0.28-3.461,0.326-5.08,0.861c-0.496,0.164-0.834,0.312-0.293,0.671
			c0.654,0.435,1.43,0.506,1.936,1.159c0.252,0.326,0.383,0.726,0.561,1.091c0.133,0.271,0.447,0.646,0.467,0.973
			c0.037,0.394-0.227,0.543-0.59,0.602c-0.439,0.071-0.799-0.098-1.139-0.357c-0.758-0.58-1.326-1.23-2.193-1.669
			c-0.678-0.343-1.398-0.612-2.121-0.839c-0.389-0.123-1.049-0.422-1.473-0.355c-0.266,0.041-0.283-0.054-0.172,0.194
			c0.49,0.428,1.102,0.708,1.613,1.11c0.307,0.24,0.846,0.623,0.682,1.08c-0.275,0.474-0.963,0.627-1.455,0.73
			c-1.213,0.254-2.443,0.038-3.668,0.141c-0.895,0.075-1.76,0.317-2.6,0.628c-0.934,0.344-2.131,0.761-2.875,1.473
			c-0.4,0.384-0.311,0.574,0.221,0.678c1.414,0.273,2.949-0.099,4.379-0.043c0.443,0.018,0.961,0.047,1.328,0.33
			c1.631,1.305-2.258,1.26-2.834,1.396c-0.656,0.156-1.301,0.371-1.922,0.633c-0.264,0.111-0.889,0.287-1.051,0.555
			c-0.539,0.497,1.129,0.268,1.238,0.37c0.312,0.042,0.043,0.188-0.059,0.294c-0.311,0.323-1.051,0.492-1.453,0.646
			c-1.74,0.666-3.404,1.33-4.996,2.307c-0.816,0.502-1.615,1.045-2.375,1.631c-0.328,0.253-0.826,0.559-1.062,0.92
			c-0.523,0.795,0.844,0.219,1.234,0.113c0.436-0.117,1.008-0.33,0.783,0.263c-0.297,0.787-1.668,1.311-2.346,1.606
			c-1.703,0.74-3.391,1.455-5.025,2.338c-1.238,0.67-2.477,1.338-3.715,2.008c-0.357,0.192-1.062,0.422-1.295,0.769
			c-0.275,0.206-0.096,0.188,0.1,0.233c0.613,0.145,1.777-0.338,2.348-0.461c0.352-0.075,1.184-0.404,1.541-0.256
			c0.318,0,0.145,0.141,0.037,0.293c-0.258,0.365-1.004,0.637-1.379,0.834c-0.766,0.404-1.557,0.789-2.369,1.091
			c-1.176,0.436-2.447,0.45-3.678,0.648c-1.99,0.321-3.975,0.733-5.93,1.231c-0.221,0.057-2.553,0.588-2.342,0.915
			c1.045,0.427,2.49,0.108,3.605,0.239c0.307,0.037,1.24,0.087,1.375,0.496c0.465,1.047-5.623,2.729-6.217,2.918
			c-0.975,0.311-2.131,0.447-3.049,0.887c-0.281,0.135-0.463,0.118-0.178,0.332c1.363,0.438,2.93-0.075,4.254,0.304
			c-0.398,0.357-1.467,0.388-1.938,0.499c-0.641,0.152-1.279,0.321-1.9,0.539c-0.826,0.291-1.605,0.688-2.326,1.188
			c-0.82,0.571-1.562,1.14-2.527,1.442c-1.484,0.467-3.062,0.564-4.605,0.688c-0.111,0.009-1.199-0.007-1.268,0.164
			c-0.172,0.092,0.588,0.291,0.627,0.301c0.85,0.218,1.717,0.374,2.555,0.637c0.117,0.037,0.637,0.15,0.695,0.309
			c0.322,0.372-1.125,0.629-1.279,0.658c-1.668,0.324-3.406,0.447-5.008,1.057c-0.84,0.319-0.576,0.48,0.201,0.54
			c1.02,0.077,2.633-0.183,3.596,0.341c0.535,0.172,0.314,0.604,0.016,0.893c-0.537,0.52-1.383,0.742-2.094,0.871
			c-2.643,0.479-5.324-0.23-7.934,0.609c-3.34,1.074-6.244,3.735-8.527,6.308c-1.059,1.193-2.088,2.487-2.775,3.936
			c-0.178,0.375-0.781,1.498-0.523,1.946c0.156,0.544,0.898-0.401,1.037-0.556c1.234-1.382,2.377-2.834,3.775-4.061
			c2.445-2.146,5.58-3.821,8.775-4.489c1.672-0.351,3.225-0.151,4.721,0.686c1.305,0.732,2.896,2.089,3.185,3.644
			c0.232,1.24-1.082,1.91-1.98,2.456c-3.676,2.232-7.537,4.157-11.271,6.292c-3.785,2.166-7.527,4.403-11.184,6.781
			c-7.324,4.764-14.467,9.801-21.334,15.203c-1.771,1.393-3.52,2.811-5.256,4.244c-0.836,0.689-1.656,1.396-2.482,2.098
			c-0.473,0.401-1.184,0.254-1.787,0.274c-3.662,0.12-7.324,0.279-10.988,0.351c-9.115,0.182-18.232,0.362-27.348,0.543
			c-12.117,0.24-24.234,0.48-36.352,0.721c-6.477,0.128-12.971,0.4-19.445,0.075c-8.627-0.434-17.127-2.196-25.732-2.863
			c-3.959-0.307-7.914-0.36-11.842,0.296c-3.914,0.655-7.736,1.871-11.482,3.163c-8.184,2.821-16.332,5.782-24.23,9.34
			c-7.727,3.479-15.428,7.294-22.148,12.511c-6.785,5.266-12.176,11.78-17.066,18.792c-4.689,6.722-8.951,13.958-11.332,21.845
			c-2.213,7.332-2.809,15-3.412,22.596c-0.773,9.723-1.525,19.444-2.414,29.156c-0.773,8.449-1.971,16.873-3.727,25.174
			c-1.812,8.584-4.498,16.949-7.789,25.075c-3.146,7.772-7.018,15.309-11.633,22.313c-4.631,7.032-10.113,13.595-16.781,18.782
			c-5.707,4.442-13.275,8.382-20.732,7.822c-3.045-0.229-5.916-1.376-8.326-3.239c-2.969-2.296-4.981-5.523-7.518-8.244
			c-2.295-2.465-4.965-4.064-8.275-4.752c-3.68-0.765-7.488-0.549-11.176,0.027c-2.512,0.392-5.021,0.784-7.533,1.177
			c-1.092,0.171-2.779,0.22-3.738,0.85c-0.564,0.371-0.098,0.554,0.365,0.734c1.652,0.642,3.426,0.966,5.096,1.575
			c0.338,0.125,2.297,0.675,2.373,1.23c0.256,0.41-1.701,0.398-1.766,0.4c-0.496,0.014-4.604-0.314-3.805,1.215
			c0.295,0.564,0.982,1.006,1.488,1.352c1.615,1.099,3.447,1.812,5.191,2.669c0.291,0.143,1.457,0.58,1.088,1.007
			c-1.086,0.256-2.205,0.275-3.307,0.473c-0.373,0.066-1.164,0.139-1.211,0.63c0,0.608,0.994,1.134,1.414,1.409
			c1.459,0.959,3.127,1.666,4.746,2.301c0.994,0.389,2.004,0.734,3,1.116c0.121,0.047,0.983,0.279,1.01,0.484
			c0.174,0.173-0.381,0.211-0.447,0.223c-0.898,0.155-1.848,0.08-2.758,0.172c-0.457,0.046-1.496,0.066-1.773,0.533
			c-0.832,0.998,3.059,2.749,3.498,2.94c1.086,0.472,2.221,0.826,3.373,1.091c0.984,0.226,2.264,0.216,3.148,0.688
			c-0.105,0.522-4.949-0.11-4.67,1.145c0.318,0.638,1.479,1.023,2.051,1.278c1.908,0.849,3.898,1.551,5.879,2.214
			c3.922,1.313,8,2.212,12.064,2.971c2.309,0.431,4.49,0.536,6.707-0.301c1.957-0.739,3.754-1.855,5.648-2.73
			c1.697-0.784,3.473-1.357,5.256-1.901c4.094-1.251,8.047-2.562,11.828-4.6c7.346-3.955,13.828-9.516,19.787-15.3
			c6.135-5.956,11.855-12.432,16.848-19.379c4.969-6.915,9.086-14.352,12.342-22.221c3.398-8.213,6.326-16.611,9.148-25.036
			c2.744-8.193,5.082-16.53,6.984-24.959c0.012-0.051,0.023-0.1,0.033-0.151c1.137,8.434,1.736,16.92,2.438,25.397
			c0.652,7.887,1.254,15.776,2.049,23.649c1.094,10.86,2.189,21.72,3.283,32.58c0.734,7.279,0.83,14.392-0.955,21.533
			c-0.996,3.984-2.291,7.979-4.082,11.683c-1.029,2.127-2.527,4.024-2.606,6.465c-0.119,3.701,1.168,7.543,2.252,11.035
			c1.303,4.193,2.832,8.313,4.377,12.423c3.115,8.294,6.512,16.432,10.229,24.472c1.512,3.272,3.176,6.851,3.475,10.487
			c0.213,2.59-0.672,5.246,0.24,7.762c1.74,4.802,6.277,7.485,11.176,7.932c4.277,0.39,8.609,0.195,12.896,0.133
			c4.445-0.066,8.891-0.106,13.336-0.1c1.631,0.002,3.324-0.063,4.922-0.411c0.508-0.111,1.166-0.426,1.676-0.375
			c1.289,0.129,2.576,0.257,3.865,0.386c3.975,0.396,7.98,0.333,11.945-0.162c4.547-0.567,9.299-1.87,10.789-6.685
			c1.523-4.92-0.193-10.096-4.119-13.346c-5.334-4.413-12.482-5.809-19.043-3.773c-1.008,0.312-2.01,0.657-3.037,0.903
			c-0.637,0.152-0.807,0.189-1.338-0.12c-0.766-0.448-1.604-0.761-2.469-0.957c-0.502-0.114-1.016-0.185-1.527-0.233
			c-0.639-0.06-0.949-0.54-1.344-1.033c-1.053-1.314-1.883-2.814-2.627-4.32c-3.654-7.398-6.137-15.711-7.656-23.808
			c-0.729-3.885-1.189-7.844-0.912-11.799c0.262-3.715,1.295-7.295,2.562-10.778c1.459-4.011,3.016-8.012,4.775-11.9
			c1.775-3.924,4-7.599,6.217-11.282c2.213-3.676,4.469-7.347,6.275-11.245c1.797-3.877,3.295-7.881,5.055-11.774
			c1.832-4.054,4.318-7.477,7.012-10.988c2.541-3.314,4.67-6.87,6.684-10.522c1.197-2.171,2.316-4.385,3.453-6.588
			c6.881,3.963,14.783,6.191,22.549,7.623c4.248,0.783,8.51,1.224,12.811,1.588c3.998,0.338,7.988,0.631,11.795,2.003
			c4.033,1.454,7.832,3.511,11.781,5.175c3.818,1.61,7.83,2.842,11.865,3.78c8.019,1.867,16.49,3.021,24.719,2.062
			c4.318-0.503,8.527-1.534,12.791-2.339c3.605-0.681,7.094-0.947,10.693-0.104c3.725,0.871,7.209,2.521,10.967,3.285
			c1.885,0.384,3.82,0.564,5.738,0.668c0.5,0.027,1.002,0.045,1.502,0.062c0.709,0.024,0.529,0.328,0.572,1.002
			c0.068,1.061,0.123,2.12,0.146,3.183c0.09,4.308-0.283,8.603-0.467,12.904c-0.189,4.437-0.166,8.863-0.035,13.301
			c0.131,4.386,0.406,8.767,0.771,13.139c0.322,3.861,1.094,7.711,1.082,11.593c-0.014,4.267-0.666,8.564-1.094,12.802
			c-0.197,1.935-0.309,3.894-0.254,5.839c0.051,1.782,0.373,3.567,0.272,5.352c-0.127,2.241-1.525,4.317-1.377,6.565
			c0.135,2.03,2.051,3.398,3.027,5.026c1.502,2.509,1.537,5.666,1.738,8.491c0.299,4.216,0.566,8.488,0.4,12.716
			c-0.127,3.202-1.432,6.214-1.178,9.439c0.107,1.365,0.461,2.783,1.621,3.628c2.01,1.465,5.148,1.491,7.498,1.721
			c4.111,0.401,8.271,0.548,12.4,0.55c9.047,0.004,18.092-0.174,27.137,0.078c2.643,0.073,5.451,0.337,8.037-0.342
			C485.623,594.489,486.652,593.965,487.33,593.051z"/>
	</g>
</g>
</svg>
